<svg width="24" height="24" viewBox="0 0 24 24" fill="none" xmlns="http://www.w3.org/2000/svg">
<path d="M12.0004 2C9.14696 2 6.57542 3.2075 4.75179 5.13095C4.73886 5.14208 4.7227 5.14603 4.7105 5.15823C4.69111 5.17762 4.68428 5.20348 4.66633 5.2243C3.0172 7.00844 2 9.38501 2 12.0004C2 17.5143 6.48566 22.0004 12 22.0004C17.5136 22.0004 22 17.5143 22 12.0004C22.0004 6.48601 17.514 2 12.0004 2ZM3.61179 12C3.61179 10.0916 4.25988 8.33514 5.3374 6.9237L17.0752 18.6626C15.6641 19.7401 13.9087 20.3882 12 20.3882C7.37467 20.3882 3.61179 16.625 3.61179 12ZM18.2587 17.5657L6.43395 5.74206C7.91684 4.42146 9.86327 3.61143 12.0004 3.61143C16.6253 3.61143 20.3886 7.37431 20.3886 12C20.3882 14.1371 19.5785 16.0839 18.2587 17.5657Z" fill="#A3A3A3"/>
</svg>
