<?xml version="1.0" encoding="UTF-8" standalone="no"?>
<svg
   width="24"
   height="24"
   viewBox="0 0 24 24"
   fill="none"
   version="1.1"
   id="svg1"
   xmlns="http://www.w3.org/2000/svg"
   xmlns:svg="http://www.w3.org/2000/svg">
  <defs
     id="defs1" />
  <path
     style="color:#000000;fill:#a3a3a3;stroke-linecap:round;stroke-linejoin:round;-inkscape-stroke:none;paint-order:markers fill stroke"
     d="M 4,2.25 C 3.8009118,2.2495668 3.6098093,2.328256 3.46875,2.46875 c -0.2938444,0.2932176 -0.2938444,0.7692824 0,1.0625 L 11.4375,11.5 3.46875,19.46875 c -0.4572611,0.690494 0.39981,1.493166 1.0625,1.0625 L 12.5,12.5625 l 7.96875,7.96875 c 0.293218,0.293844 0.769282,0.293844 1.0625,0 0.293844,-0.293218 0.293844,-0.769282 0,-1.0625 L 13.5625,11.5 21.53125,3.53125 C 21.936478,2.6959972 21.204346,2.1033686 20.46875,2.46875 L 12.5,10.4375 4.53125,2.46875 C 4.3901907,2.328256 4.1990882,2.2495668 4,2.25 Z"
     id="path1" />
</svg>
