<svg width="24" height="24" viewBox="0 0 24 24" fill="none" xmlns="http://www.w3.org/2000/svg">
<path d="M21.4963 7.66697C17.9726 6.65666 16.1032 8.05261 15.2862 9.0074C14.9573 8.60744 14.5669 8.23915 14.1312 7.9433C15.8874 7.66654 19.622 6.87486 21.2169 4.98351C21.8239 4.26341 22.0798 3.45438 21.9784 2.57855C21.9366 2.22154 21.6017 1.9656 21.2255 2.00377C20.8515 2.04368 20.5821 2.36556 20.6234 2.72257C20.6848 3.2479 20.5317 3.7203 20.1559 4.16667C19.4552 4.99826 18.0898 5.60514 16.7044 6.02592C17.2101 4.69894 16.4917 3.29214 16.4581 3.22707C16.29 2.90693 15.8842 2.77766 15.5466 2.936C15.2103 3.09477 15.0722 3.48518 15.2372 3.80662C15.2435 3.8179 15.8142 4.95098 15.3371 5.76868C15.0172 6.31787 14.2575 6.65492 13.0811 6.77162L10.901 6.77292C9.66912 6.65232 8.84259 6.28663 8.44637 5.68496C7.89929 4.85381 8.30233 3.76151 8.30869 3.74329C8.43864 3.40797 8.26007 3.03447 7.90837 2.90867C7.55668 2.78113 7.16318 2.95335 7.03096 3.28954C7.00687 3.35027 6.51614 4.63995 7.04004 5.89752C4.32055 4.67638 3.81981 2.64145 3.79255 2.51955C3.71712 2.16991 3.35543 1.94477 2.99147 2.01288C2.62205 2.08316 2.38259 2.42585 2.45666 2.77853C2.49619 2.9668 3.46448 7.20801 9.92539 7.98624C9.49282 8.28947 9.10613 8.6634 8.78352 9.06596C7.74525 8.02095 5.72369 6.73995 2.48574 7.6674C2.19766 7.74939 2.00091 8.00186 2 8.28903C2 8.36191 2.01091 10.0897 3.4036 11.3074C4.24194 12.0396 5.37654 12.4175 6.77968 12.4409C6.25032 13.8941 6.71698 15.52 7.99153 16.5086C8.51271 16.9133 8.88167 17.9544 8.92483 18.6867L9.01026 20.1559C9.07069 21.1901 9.9672 22 11.0518 22H13.0656C14.1507 22 15.0472 21.1901 15.1072 20.1559L15.1926 18.6867C15.2353 17.9544 15.6038 16.9129 16.1259 16.5086C17.3978 15.5221 17.8649 13.9002 17.3341 12.4379C17.3896 12.4392 17.4491 12.4457 17.5036 12.4457C18.9695 12.4452 20.1086 12.0578 20.8979 11.29C22.1747 10.0463 21.9866 8.29294 21.9784 8.21876C21.948 7.95891 21.758 7.74202 21.4963 7.66697ZM15.1663 13.0621C15.1663 13.4213 14.8609 13.7128 14.4847 13.7128C14.1085 13.7128 13.8031 13.4213 13.8031 13.0621C13.8031 12.7029 14.1085 12.4114 14.4847 12.4114C14.8609 12.4114 15.1663 12.7029 15.1663 13.0621ZM11.9856 18.2364C12.7385 18.2364 13.3487 18.6732 13.3487 19.2124C13.3487 19.7516 12.7385 20.1885 11.9856 20.1885C11.2327 20.1885 10.6224 19.7516 10.6224 19.2124C10.6224 18.6732 11.2327 18.2364 11.9856 18.2364ZM9.94084 12.4114C10.3171 12.4114 10.6224 12.7029 10.6224 13.0621C10.6224 13.4213 10.3171 13.7128 9.94084 13.7128C9.56461 13.7128 9.25926 13.4213 9.25926 13.0621C9.25926 12.7029 9.56416 12.4114 9.94084 12.4114ZM3.4295 8.77792C5.96906 8.25823 7.41082 9.46028 8.04015 10.2103L7.50079 11.1187C6.11083 11.2224 5.04257 10.9686 4.33509 10.3565C3.7612 9.86067 3.52628 9.21432 3.4295 8.77792ZM19.9241 10.3786C19.2957 10.9898 18.2497 11.2375 16.8184 11.1122C16.7507 11.1061 16.6853 11.1135 16.6212 11.1261L16.0673 10.1938C16.3063 9.77478 17.4841 8.08385 20.618 8.78833C20.5816 9.21605 20.4367 9.87933 19.9241 10.3786Z" fill="#A3A3A3"/>
</svg>
