<svg width="24" height="24" viewBox="0 0 24 24" fill="none" xmlns="http://www.w3.org/2000/svg">
<path d="M18.3199 2C17.3751 2 16.4303 2.35819 15.7143 3.07453L4.06099 14.7268C3.83989 14.9479 3.67795 15.2228 3.5921 15.5247L2.03017 20.994C1.99165 21.1293 1.98999 21.2725 2.02535 21.4087C2.06072 21.5449 2.13182 21.6692 2.23132 21.7687C2.33082 21.8682 2.4551 21.9393 2.59129 21.9746C2.72749 22.01 2.87066 22.0084 3.00599 21.9698L8.47636 20.4079L8.47739 20.4069C8.77723 20.3207 9.05152 20.1608 9.27326 19.939L19.5775 9.6338L20.2695 10.3268C20.4723 10.5294 20.4728 10.8341 20.2695 11.0374L16.4454 14.8615C16.3696 14.9342 16.3091 15.0214 16.2674 15.1178C16.2257 15.2143 16.2037 15.3181 16.2027 15.4231C16.2016 15.5282 16.2215 15.6324 16.2612 15.7297C16.3009 15.827 16.3596 15.9153 16.4339 15.9896C16.5082 16.0639 16.5966 16.1226 16.6939 16.1624C16.7911 16.2021 16.8954 16.222 17.0004 16.2209C17.1055 16.2198 17.2093 16.1978 17.3057 16.1561C17.4022 16.1145 17.4893 16.0539 17.5621 15.9782L21.3862 12.1541C22.1925 11.3478 22.1926 10.0164 21.3862 9.21016V9.20913L20.6942 8.51711L20.9256 8.28575C22.3581 6.85316 22.3581 4.50712 20.9256 3.07453C20.2095 2.35819 19.2648 2 18.3199 2ZM18.3199 3.57015C18.8574 3.57015 19.394 3.77723 19.8078 4.19122H19.8089C20.638 5.02034 20.638 6.33994 19.8089 7.16906L8.15554 18.8223C8.12467 18.853 8.08558 18.8765 8.0414 18.8892L3.93863 20.0614L5.11085 15.9576V15.9566C5.12292 15.9141 5.14503 15.8761 5.17769 15.8435L16.831 4.19122C17.2448 3.77723 17.7825 3.57015 18.3199 3.57015Z" fill="#A3A3A3"/>
</svg>
