<svg width="24" height="24" viewBox="0 0 24 24" fill="none" xmlns="http://www.w3.org/2000/svg">
<path d="M13.9648 19.0828C13.317 19.2053 12.6592 19.2667 12 19.2662C7.30756 19.2662 3.33606 16.1823 2 11.931C2.35971 10.7868 2.91375 9.7131 3.63785 8.75694M9.77638 9.70842C10.366 9.11882 11.1657 8.78759 11.9995 8.78759C12.8333 8.78759 13.633 9.11882 14.2226 9.70842C14.8122 10.298 15.1434 11.0977 15.1434 11.9315C15.1434 12.7653 14.8122 13.565 14.2226 14.1546M9.77638 9.70842L14.2226 14.1546M9.77638 9.70842L14.2215 14.1525M14.2226 14.1546L17.6712 17.6022M9.77848 9.70947L6.33092 6.26192M6.33092 6.26192L2.569 2.5M6.33092 6.26192C8.02049 5.17166 9.98921 4.59306 12 4.59578C16.6924 4.59578 20.6639 7.67971 22 11.931C21.2623 14.2683 19.7307 16.274 17.6701 17.6011M6.33092 6.26192L17.6701 17.6011M17.6701 17.6011L21.431 21.362" stroke="#A3A3A3" stroke-width="1.5" stroke-linecap="round" stroke-linejoin="round"/>
</svg>
