<svg width="24" height="24" viewBox="0 0 24 24" fill="none" xmlns="http://www.w3.org/2000/svg">
<path d="M17.5556 16.3333L22 11.8889M22 11.8889L17.5556 7.44444M22 11.8889H6.44444M13.1111 16.3333V17.4444C13.1111 18.3285 12.7599 19.1763 12.1348 19.8015C11.5097 20.4266 10.6618 20.7778 9.77778 20.7778H5.33333C4.44928 20.7778 3.60143 20.4266 2.97631 19.8015C2.35119 19.1763 2 18.3285 2 17.4444V6.33333C2 5.44928 2.35119 4.60143 2.97631 3.97631C3.60143 3.35119 4.44928 3 5.33333 3H9.77778C10.6618 3 11.5097 3.35119 12.1348 3.97631C12.7599 4.60143 13.1111 5.44928 13.1111 6.33333V7.44444" stroke="#A3A3A3" stroke-width="1.5" stroke-linecap="round" stroke-linejoin="round"/>
</svg>
