<svg width="24" height="24" viewBox="0 0 24 24" fill="none" xmlns="http://www.w3.org/2000/svg">
<path d="M19.4963 7.66697C15.9726 6.65666 14.1032 8.05261 13.2862 9.0074C12.9573 8.60744 12.5669 8.23915 12.1312 7.9433C13.8874 7.66654 17.622 6.87486 19.2169 4.98351C19.8239 4.26341 20.0798 3.45438 19.9784 2.57855C19.9366 2.22154 19.6017 1.9656 19.2255 2.00377C18.8515 2.04368 18.5821 2.36556 18.6234 2.72257C18.6848 3.2479 18.5317 3.7203 18.1559 4.16667C17.4552 4.99826 16.0898 5.60514 14.7044 6.02592C15.2101 4.69894 14.4917 3.29214 14.4581 3.22707C14.29 2.90693 13.8842 2.77766 13.5466 2.936C13.2103 3.09477 13.0722 3.48518 13.2372 3.80662C13.2435 3.8179 13.8142 4.95098 13.3371 5.76868C13.0172 6.31787 12.2575 6.65492 11.0811 6.77162L8.90096 6.77292C7.66912 6.65232 6.84259 6.28663 6.44637 5.68496C5.89929 4.85381 6.30233 3.76151 6.30869 3.74329C6.43864 3.40797 6.26007 3.03447 5.90837 2.90867C5.55668 2.78113 5.16318 2.95335 5.03096 3.28954C5.00687 3.35027 4.51614 4.63995 5.04004 5.89752C2.32055 4.67638 1.81981 2.64145 1.79255 2.51955C1.71712 2.16991 1.35543 1.94477 0.991469 2.01288C0.622054 2.08316 0.382593 2.42585 0.456657 2.77853C0.496189 2.9668 1.46448 7.20801 7.92539 7.98624C7.49282 8.28947 7.10613 8.6634 6.78352 9.06596C5.74525 8.02095 3.72369 6.73995 0.485738 7.6674C0.197658 7.74939 0.000908771 8.00186 0 8.28903C0 8.36191 0.0109051 10.0897 1.4036 11.3074C2.24194 12.0396 3.37654 12.4175 4.77968 12.4409C4.25032 13.8941 4.71698 15.52 5.99153 16.5086C6.51271 16.9133 6.88167 17.9544 6.92483 18.6867L7.01026 20.1559C7.07069 21.1901 7.96719 22 9.05181 22H11.0656C12.1507 22 13.0472 21.1901 13.1072 20.1559L13.1926 18.6867C13.2353 17.9544 13.6038 16.9129 14.1259 16.5086C15.3978 15.5221 15.8649 13.9002 15.3341 12.4379C15.3896 12.4392 15.4491 12.4457 15.5036 12.4457C16.9695 12.4452 18.1086 12.0578 18.8979 11.29C20.1747 10.0463 19.9866 8.29294 19.9784 8.21876C19.948 7.95891 19.758 7.74202 19.4963 7.66697ZM13.1663 13.0621C13.1663 13.4213 12.8609 13.7128 12.4847 13.7128C12.1085 13.7128 11.8031 13.4213 11.8031 13.0621C11.8031 12.7029 12.1085 12.4114 12.4847 12.4114C12.8609 12.4114 13.1663 12.7029 13.1663 13.0621ZM9.98558 18.2364C10.7385 18.2364 11.3487 18.6732 11.3487 19.2124C11.3487 19.7516 10.7385 20.1885 9.98558 20.1885C9.23266 20.1885 8.62242 19.7516 8.62242 19.2124C8.62242 18.6732 9.23266 18.2364 9.98558 18.2364ZM7.94084 12.4114C8.31707 12.4114 8.62242 12.7029 8.62242 13.0621C8.62242 13.4213 8.31707 13.7128 7.94084 13.7128C7.56461 13.7128 7.25926 13.4213 7.25926 13.0621C7.25926 12.7029 7.56416 12.4114 7.94084 12.4114ZM1.4295 8.77792C3.96906 8.25823 5.41082 9.46028 6.04015 10.2103L5.50079 11.1187C4.11083 11.2224 3.04257 10.9686 2.33509 10.3565C1.7612 9.86067 1.52628 9.21432 1.4295 8.77792ZM17.9241 10.3786C17.2957 10.9898 16.2497 11.2375 14.8184 11.1122C14.7507 11.1061 14.6853 11.1135 14.6212 11.1261L14.0673 10.1938C14.3063 9.77478 15.4841 8.08385 18.618 8.78833C18.5816 9.21605 18.4367 9.87933 17.9241 10.3786Z" fill="#A3A3A3"/>
</svg>
