<svg width="24" height="24" viewBox="0 0 24 24" fill="none" xmlns="http://www.w3.org/2000/svg">
<path d="M12.0004 3C9.14696 3 6.57542 4.2075 4.75179 6.13095C4.73886 6.14208 4.7227 6.14603 4.7105 6.15823C4.69111 6.17762 4.68428 6.20348 4.66633 6.2243C3.0172 8.00844 2 10.385 2 13.0004C2 18.5143 6.48566 23.0004 12 23.0004C17.5136 23.0004 22 18.5143 22 13.0004C22.0004 7.48601 17.514 3 12.0004 3ZM3.61179 13C3.61179 11.0916 4.25988 9.33514 5.3374 7.9237L17.0752 19.6626C15.6641 20.7401 13.9087 21.3882 12 21.3882C7.37467 21.3882 3.61179 17.625 3.61179 13ZM18.2587 18.5657L6.43395 6.74206C7.91684 5.42146 9.86327 4.61143 12.0004 4.61143C16.6253 4.61143 20.3886 8.37431 20.3886 13C20.3882 15.1371 19.5785 17.0839 18.2587 18.5657Z" fill="#A3A3A3"/>
</svg>
