<svg width="24" height="24" viewBox="0 0 24 24" fill="none" xmlns="http://www.w3.org/2000/svg">
<path d="M17.2222 15.3333L21 11.5556M21 11.5556L17.2222 7.77778M21 11.5556H7.77778M13.4444 15.3333V16.2778C13.4444 17.0292 13.1459 17.7499 12.6146 18.2812C12.0832 18.8126 11.3626 19.1111 10.6111 19.1111H6.83333C6.08189 19.1111 5.36122 18.8126 4.82986 18.2812C4.29851 17.7499 4 17.0292 4 16.2778V6.83333C4 6.08189 4.29851 5.36122 4.82986 4.82986C5.36122 4.29851 6.08189 4 6.83333 4H10.6111C11.3626 4 12.0832 4.29851 12.6146 4.82986C13.1459 5.36122 13.4444 6.08189 13.4444 6.83333V7.77778" stroke="#A3A3A3" stroke-width="1.5" stroke-linecap="round" stroke-linejoin="round"/>
</svg>
