<?xml version="1.0" encoding="UTF-8" standalone="no"?>
<svg
   width="24"
   height="24"
   viewBox="0 0 24 24"
   fill="none"
   version="1.1"
   id="svg1"
   xmlns="http://www.w3.org/2000/svg"
   xmlns:svg="http://www.w3.org/2000/svg">
  <defs
     id="defs1" />
  <path
     style="color:#000000;fill:#a3a3a3;fill-opacity:1;stroke-width:0;stroke-linecap:round;stroke-linejoin:round;stroke-dasharray:none"
     d="M 6.8339844,3.25 C 5.88392,3.25 4.9706342,3.6270347 4.2988281,4.2988281 3.6270347,4.9706342 3.25,5.88392 3.25,6.8339844 v 9.4433596 c 0,0.949483 0.3777218,1.861539 1.0488281,2.533203 0.6718121,0.671863 1.5850986,1.050781 2.5351563,1.050781 h 3.7773436 c 0.950102,0 1.861387,-0.377012 2.533203,-1.048828 0.671776,-0.671776 1.050782,-1.585128 1.050782,-2.535156 v -0.94336 a 0.75,0.75 0 0 0 -0.75,-0.75 0.75,0.75 0 0 0 -0.75,0.75 v 0.94336 c 0,0.55277 -0.220505,1.081833 -0.611329,1.472656 -0.390983,0.390983 -0.919759,0.611328 -1.472656,0.611328 H 6.8339844 C 6.2811636,18.361328 5.7502818,18.140936 5.359375,17.75 4.9685144,17.359176 4.75,16.830107 4.75,16.277344 V 6.8339844 C 4.75,6.2811702 4.9684694,5.7502879 5.359375,5.359375 5.7502879,4.9684694 6.2811702,4.75 6.8339844,4.75 h 3.7773436 c 0.55289,0 1.081667,0.2184228 1.472656,0.609375 0.390869,0.3909123 0.611329,0.9217886 0.611329,1.4746094 v 0.9433593 a 0.75,0.75 0 0 0 0.75,0.7500001 0.75,0.75 0 0 0 0.75,-0.7500001 V 6.8339844 c 0,-0.9500577 -0.379051,-1.8633497 -1.050782,-2.5351563 C 12.472721,3.6270814 11.561437,3.25 10.611328,3.25 Z m 9.8574216,3.9980469 a 0.75,0.75 0 0 0 0,1.0605469 L 19.1875,10.804688 H 7.7773437 a 0.75,0.75 0 0 0 -0.75,0.75 0.75,0.75 0 0 0 0.75,0.75 H 19.189453 l -2.498047,2.498046 a 0.75,0.75 0 0 0 0,1.060547 0.75,0.75 0 0 0 1.060547,0 l 3.779297,-3.777343 a 0.75,0.75 0 0 0 0.173828,-0.300782 0.75,0.75 0 0 0 0.01953,-0.101562 0.75,0.75 0 0 0 0.02539,-0.128906 0.75,0.75 0 0 0 -0.02539,-0.126954 0.75,0.75 0 0 0 -0.01953,-0.101562 0.75,0.75 0 0 0 -0.173828,-0.300781 L 17.751953,7.2480469 a 0.75,0.75 0 0 0 -1.060547,0 z"
     id="path1" />
</svg>
