<?xml version="1.0" encoding="UTF-8" standalone="no"?>
<svg
   width="24"
   height="24"
   viewBox="0 0 24 24"
   fill="none"
   version="1.1"
   id="svg1"
   xmlns="http://www.w3.org/2000/svg"
   xmlns:svg="http://www.w3.org/2000/svg">
  <defs
     id="defs1" />
  <path
     d="M 8.88571,4.88889 H 6.94286 C 6.42758,4.88889 5.93341,5.0879 5.56905,5.44213 5.20469,5.79637 5,6.27681 5,6.77778 V 18.1111 c 0,0.501 0.20469,0.9814 0.56905,1.3357 C 5.93341,19.801 6.42758,20 6.94286,20 h 9.71424 c 0.5153,0 1.0095,-0.199 1.3738,-0.5532 C 18.3953,19.0925 18.6,18.6121 18.6,18.1111 V 6.77778 C 18.6,6.27681 18.3953,5.79637 18.0309,5.44213 17.6666,5.0879 17.1724,4.88889 16.6571,4.88889 h -1.9428 m -5.82859,0 c 0,0.50096 0.2047,0.98141 0.56905,1.33565 0.36436,0.35423 0.85854,0.55324 1.37384,0.55324 h 1.9428 c 0.5153,0 1.0095,-0.19901 1.3738,-0.55324 0.3644,-0.35424 0.5691,-0.83469 0.5691,-1.33565 m -5.82859,0 c 0,-0.50097 0.2047,-0.98141 0.56905,-1.33565 C 9.81912,3.19901 10.3133,3 10.8286,3 h 1.9428 c 0.5153,0 1.0095,0.19901 1.3738,0.55324 0.3644,0.35424 0.5691,0.83468 0.5691,1.33565 M 11.8,11.5 h 2.9143 M 11.8,15.2778 h 2.9143 M 8.88571,11.5 h 0.00972 m -0.00972,3.7778 h 0.00972"
     stroke="#a3a3a3"
     stroke-width="1.5"
     stroke-linecap="round"
     stroke-linejoin="round"
     id="path1"
     style="fill:none" />
</svg>
