<svg width="24" height="24" viewBox="0 0 24 24" fill="none" xmlns="http://www.w3.org/2000/svg">
<path d="M8.57143 4.22222H6.28571C5.67951 4.22222 5.09812 4.45635 4.66947 4.8731C4.24082 5.28984 4 5.85507 4 6.44444V19.7778C4 20.3671 4.24082 20.9324 4.66947 21.3491C5.09812 21.7659 5.67951 22 6.28571 22H17.7143C18.3205 22 18.9019 21.7659 19.3305 21.3491C19.7592 20.9324 20 20.3671 20 19.7778V6.44444C20 5.85507 19.7592 5.28984 19.3305 4.8731C18.9019 4.45635 18.3205 4.22222 17.7143 4.22222H15.4286M8.57143 4.22222C8.57143 4.81159 8.81224 5.37682 9.2409 5.79357C9.66955 6.21032 10.2509 6.44444 10.8571 6.44444H13.1429C13.7491 6.44444 14.3304 6.21032 14.7591 5.79357C15.1878 5.37682 15.4286 4.81159 15.4286 4.22222M8.57143 4.22222C8.57143 3.63285 8.81224 3.06762 9.2409 2.65087C9.66955 2.23413 10.2509 2 10.8571 2H13.1429C13.7491 2 14.3304 2.23413 14.7591 2.65087C15.1878 3.06762 15.4286 3.63285 15.4286 4.22222M12 12H15.4286M12 16.4444H15.4286M8.57143 12H8.58286M8.57143 16.4444H8.58286" stroke="#A3A3A3" stroke-width="1.5" stroke-linecap="round" stroke-linejoin="round"/>
</svg>
