<?xml version="1.0" encoding="UTF-8" standalone="no"?>
<svg
   width="24"
   height="24"
   viewBox="0 0 24 24"
   fill="none"
   version="1.1"
   id="svg1"
   xmlns="http://www.w3.org/2000/svg"
   xmlns:svg="http://www.w3.org/2000/svg">
  <defs
     id="defs1" />
  <path
     style="color:#000000;fill:#a3a3a3;stroke-linecap:round;stroke-linejoin:round;-inkscape-stroke:none"
     d="m 2.953125,3.46875 a 0.75,0.75 0 0 0 0,1.0625 L 6.1503906,7.7285156 9.078125,10.654297 a 0.75,0.75 0 0 0 0.00195,0.0039 l 3.777344,3.777344 0.002,0.002 2.927734,2.925781 0.002,0.0039 a 0.75,0.75 0 0 0 0.002,0 l 3.195312,3.195313 a 0.75,0.75 0 0 0 1.060547,0 0.75,0.75 0 0 0 0,-1.060547 l -2.652344,-2.652344 c 1.52114,-1.198244 2.73332,-2.747488 3.320313,-4.607421 a 0.750075,0.750075 0 0 0 0,-0.451172 C 19.483084,7.8714887 15.818289,5.0321245 11.501953,5.03125 H 11.5 C 9.8597601,5.0293662 8.2775971,5.5118972 6.8496094,6.3046875 L 4.0136719,3.46875 a 0.75,0.75 0 0 0 -1.0605469,0 z m 8.544922,3.0625 a 0.750075,0.750075 0 0 0 0.002,0 c 3.568367,0 6.557714,2.3013641 7.669922,5.480469 -0.534863,1.528799 -1.530483,2.821831 -2.820313,3.792969 h -0.002 L 14.34375,13.800781 c 0.338578,-0.540413 0.578125,-1.1355 0.578125,-1.783203 0,-0.907445 -0.360413,-1.778382 -1.001953,-2.4199217 C 13.278292,8.9560266 12.407337,8.59375 11.5,8.59375 c -0.647045,0 -1.243153,0.2402098 -1.7832031,0.578125 h -0.00195 L 7.96875,7.4257812 C 9.0746044,6.8876121 10.259651,6.5295763 11.498047,6.53125 Z M 4.2890625,8.5761719 A 0.75,0.75 0 0 0 3.7949219,8.8652344 C 3.1274471,9.74659 2.6167255,10.736392 2.2851563,11.791016 a 0.750075,0.750075 0 0 0 0,0.449218 c 1.2319976,3.920175 4.8976548,6.761719 9.2148437,6.761719 0.607238,4.34e-4 1.211882,-0.0571 1.808594,-0.169922 a 0.75,0.75 0 0 0 0.597656,-0.875 0.75,0.75 0 0 0 -0.875,-0.597656 c -0.504487,0.09538 -1.017889,0.142945 -1.53125,0.142578 -3.5683394,0 -6.5576671,-2.303245 -7.6699219,-5.482422 0.2793646,-0.800836 0.6474804,-1.571093 1.1601563,-2.2480466 A 0.75,0.75 0 0 0 4.8457031,8.7207031 0.75,0.75 0 0 0 4.2890625,8.5761719 Z M 11.5,10.09375 c 0.510061,0 0.998606,0.203684 1.359375,0.564453 0.360659,0.360659 0.5625,0.849221 0.5625,1.359375 0,0.228606 -0.174604,0.398969 -0.251953,0.609375 L 10.890625,10.347656 C 11.101131,10.270221 11.271178,10.09375 11.5,10.09375 Z"
     id="path1" />
</svg>
