<svg width="24" height="24" viewBox="0 0 24 24" fill="none" xmlns="http://www.w3.org/2000/svg">
<path d="M11.7807 2.65143L11.7809 2.65116C11.8048 2.6007 11.8399 2.56199 11.8791 2.53665C11.918 2.5115 11.9604 2.49973 12.0016 2.5L12.0049 2.00002L12.0013 2.5C12.0421 2.50029 12.0839 2.51237 12.1223 2.53754C12.1609 2.56289 12.1955 2.6013 12.2191 2.65115L12.2193 2.65143L14.7955 8.07498L14.9081 8.31205L15.1672 8.35401L21.2842 9.34492C21.2842 9.34493 21.2843 9.34494 21.2844 9.34495C21.3251 9.35161 21.3661 9.3704 21.4022 9.40264C21.4386 9.43513 21.4684 9.48021 21.4853 9.53459C21.5023 9.58906 21.5047 9.64817 21.4919 9.70448C21.4791 9.76071 21.4524 9.80915 21.4179 9.84556L17.1864 14.2996L17.019 14.4758L17.0542 14.7163L17.9966 21.1627C18.005 21.2203 17.9979 21.2789 17.9771 21.3311C17.9563 21.3831 17.9236 21.4246 17.8858 21.4531C17.8482 21.4814 17.8066 21.4964 17.7658 21.4994C17.725 21.5024 17.683 21.4938 17.6438 21.4723L12.2407 18.5047L12 18.3725L11.7593 18.5047L6.35616 21.4723C6.31697 21.4938 6.27495 21.5024 6.23421 21.4994C6.19339 21.4964 6.15178 21.4814 6.11424 21.4531C6.07643 21.4246 6.04372 21.3831 6.02292 21.3311C6.00206 21.2789 5.99497 21.2203 6.00339 21.1627L6.9458 14.7163L6.98095 14.4758L6.81355 14.2996L2.58213 9.84556C2.58213 9.84555 2.58212 9.84555 2.58211 9.84554C2.58208 9.84551 2.58205 9.84547 2.58202 9.84544C2.5475 9.80904 2.52087 9.76065 2.50812 9.70448C2.49535 9.64817 2.49772 9.58906 2.51465 9.53459C2.53156 9.48022 2.56144 9.43513 2.5978 9.40264C2.63389 9.37038 2.67497 9.35159 2.71569 9.34494C2.71573 9.34493 2.71577 9.34493 2.71582 9.34492L8.83282 8.35401L9.09189 8.31205L9.2045 8.07498L11.7807 2.65143Z" fill="#A3A3A3" stroke="#A3A3A3"/>
</svg>
