<svg width="24" height="24" viewBox="0 0 24 24" fill="none" xmlns="http://www.w3.org/2000/svg">
<path d="M18.3861 2C17.9773 2.00011 17.5686 2.15455 17.2608 2.46276L16.5759 3.14759C16.1917 3.5311 15.9764 4.05197 15.9764 4.5945V6.93053L10.0644 12.8425L8.39539 11.1727C7.69044 10.4684 6.52685 10.468 5.82221 11.1727C5.81462 11.1805 5.80721 11.1885 5.8 11.1967L3.281 13.9724V13.9733C1.47991 15.9014 1.59161 18.9481 3.53059 20.738C5.40749 22.4709 8.33568 22.4119 10.1425 20.6056L12.6988 18.0493H12.6997C13.404 17.3444 13.4035 16.1817 12.6988 15.477L11.029 13.8072L16.941 7.89514H19.277C19.8193 7.89514 20.3402 7.67928 20.7239 7.29559L21.4097 6.60988C22.0255 5.99407 22.0255 4.97493 21.4097 4.35912L19.5124 2.46188C19.2045 2.15397 18.795 1.99989 18.3861 2ZM18.387 3.35632C18.4438 3.35613 18.5005 3.37922 18.5478 3.42649L20.445 5.32373C20.5396 5.41828 20.5396 5.55073 20.445 5.64527L19.7593 6.33098C19.631 6.45936 19.4578 6.53083 19.277 6.53083H17.3407V4.5945C17.3407 4.41304 17.4127 4.24073 17.5405 4.11308L18.2263 3.42738C18.2736 3.37996 18.3303 3.3565 18.387 3.35632ZM7.10836 12.0005C7.22342 12.0005 7.33895 12.0465 7.43078 12.1382L9.09976 13.8072L7.08082 15.8261C7.01536 15.889 6.96309 15.9642 6.92708 16.0476C6.89108 16.1309 6.87206 16.2205 6.87113 16.3113C6.87021 16.402 6.8874 16.492 6.92171 16.5761C6.95602 16.6601 7.00674 16.7364 7.07092 16.8006C7.13509 16.8648 7.21143 16.9155 7.29545 16.9498C7.37948 16.9841 7.4695 17.0013 7.56026 17.0004C7.65101 16.9995 7.74067 16.9805 7.82398 16.9444C7.90729 16.9084 7.98258 16.8562 8.04543 16.7907L10.0644 14.7718L11.7342 16.4416C11.9173 16.6247 11.9177 16.901 11.7342 17.0847L9.17792 19.641C7.87869 20.9399 5.80537 20.9809 4.45612 19.7352C3.06092 18.4473 2.98134 16.2913 4.27759 14.9041C4.27968 14.9018 4.28175 14.8994 4.28381 14.897L6.7886 12.1364C6.87988 12.0459 6.99395 12.0005 7.10836 12.0005Z" fill="#A3A3A3"/>
</svg>
