<svg width="24" height="24" viewBox="0 0 24 24" fill="none" xmlns="http://www.w3.org/2000/svg">
<path d="M12.0001 2C9.39344 2 7.26332 4.13013 7.26332 6.73679C7.26332 7.95422 7.94844 9.18977 8.70348 10.4312C9.45851 11.6727 10.3338 12.8474 10.8755 13.5459C11.4331 14.264 12.5671 14.264 13.1247 13.5459C13.6668 12.8473 14.5416 11.6727 15.2967 10.4312C16.0519 9.18976 16.7369 7.95422 16.7369 6.73679C16.7369 4.13013 14.6068 2 12.0001 2ZM12.0001 3.57893C13.7534 3.57893 15.158 4.98351 15.158 6.73679C15.158 7.21356 14.6507 8.45574 13.9481 9.61094C13.287 10.6978 12.5237 11.7198 11.9991 12.4018C11.4746 11.7197 10.7129 10.6973 10.0521 9.61094C9.34957 8.45573 8.84225 7.21356 8.84225 6.73679C8.84225 4.98351 10.2468 3.57893 12.0001 3.57893ZM18.3158 4.63155V6.21048H20.1579C20.3132 6.21048 20.4211 6.31835 20.4211 6.47364V10.2616L19.1937 11.0799C19.0337 11.1866 18.9182 11.348 18.8688 11.5339C18.8194 11.7198 18.8395 11.9173 18.9254 12.0893L20.3738 14.9861L19.9184 16.8086C19.9027 16.8712 19.8948 16.9354 19.8948 16.9998V19.0845L16.519 20.3499L12.6159 18.3989C12.4677 18.3249 12.3 18.2994 12.1366 18.326C11.9732 18.3526 11.8222 18.4298 11.7051 18.5469L10.3574 19.8945H6.27443L5.09537 18.7155L4.65747 16.5239L5.11799 15.1444C5.18399 14.9458 5.16846 14.7292 5.07481 14.542L3.62129 11.6339L4.43029 7.995C4.45786 7.87072 4.55876 7.78941 4.68625 7.78941H5.68439V6.21048H4.68625C3.82743 6.21048 3.07447 6.81383 2.88837 7.6527L2.01872 11.5651C1.97948 11.7421 2.00234 11.9272 2.08348 12.0893L3.51644 14.9553L3.09293 16.2237C3.04956 16.3543 3.04106 16.4939 3.06826 16.6288L3.59457 19.2603C3.62521 19.413 3.70032 19.5532 3.81044 19.6633L5.38937 21.2422C5.5374 21.3902 5.73818 21.4734 5.94754 21.4735H10.6843C10.8937 21.4734 11.0945 21.3902 11.2425 21.2422L12.4195 20.0652L16.1212 21.9165C16.2183 21.965 16.3244 21.993 16.4328 21.9987C16.5412 22.0043 16.6496 21.9876 16.7513 21.9494L20.9618 20.3705C21.1122 20.314 21.2417 20.213 21.3332 20.0809C21.4247 19.9489 21.4737 19.792 21.4737 19.6314V17.0975L21.9764 15.0858C22.0219 14.9032 22.0008 14.7104 21.9167 14.542L20.6493 12.0071L21.6484 11.341C21.7566 11.2689 21.8452 11.1712 21.9066 11.0566C21.9679 10.942 22 10.8141 22 10.6841V6.47364C22 5.46578 21.1658 4.63155 20.1579 4.63155H18.3158ZM12.0001 5.60913C11.7049 5.61499 11.4238 5.73637 11.2171 5.94721C11.0104 6.15805 10.8946 6.44154 10.8946 6.73679C10.8946 7.03205 11.0104 7.31553 11.2171 7.52637C11.4238 7.73721 11.7049 7.85859 12.0001 7.86445C12.2953 7.85859 12.5764 7.73721 12.7831 7.52637C12.9898 7.31553 13.1056 7.03205 13.1056 6.73679C13.1056 6.44154 12.9898 6.15805 12.7831 5.94721C12.5764 5.73637 12.2953 5.61499 12.0001 5.60913ZM8.05278 15.1578C7.70382 15.1578 7.36915 15.2964 7.12239 15.5431C6.87563 15.7899 6.73701 16.1246 6.73701 16.4735C6.73701 16.8225 6.87563 17.1572 7.12239 17.4039C7.36915 17.6507 7.70382 17.7893 8.05278 17.7893C8.40175 17.7893 8.73642 17.6507 8.98318 17.4039C9.22993 17.1572 9.36856 16.8225 9.36856 16.4735C9.36856 16.1246 9.22993 15.7899 8.98318 15.5431C8.73642 15.2964 8.40175 15.1578 8.05278 15.1578Z" fill="#A3A3A3"/>
</svg>
