<svg xmlns="http://www.w3.org/2000/svg" x="0px" y="0px" width="100" height="100" viewBox="0 0 48 48">
<path d="M 24 4 C 19.047281 4 15 8.0472805 15 13 C 15 15.313135 16.30174 17.660709 17.736328 20.019531 C 19.170917 22.378353 20.833976 24.610319 21.863281 25.9375 C 22.92266 27.301751 25.07734 27.301751 26.136719 25.9375 C 27.166698 24.610108 28.828936 22.378383 30.263672 20.019531 C 31.698408 17.66068 33 15.313135 33 13 C 33 8.0472805 28.952719 4 24 4 z M 24 7 C 27.331281 7 30 9.6687195 30 13 C 30 13.905865 29.036186 16.266038 27.701172 18.460938 C 26.445174 20.525924 24.994852 22.467859 23.998047 23.763672 C 23.001537 22.467603 21.554207 20.525093 20.298828 18.460938 C 18.963917 16.26601 18 13.905865 18 13 C 18 9.6687195 20.668719 7 24 7 z M 36 9 L 36 12 L 39.5 12 C 39.795045 12 40 12.204955 40 12.5 L 40 19.697266 L 37.667969 21.251953 A 1.50015 1.50015 0 0 0 37.158203 23.169922 L 39.910156 28.673828 L 39.044922 32.136719 A 1.50015 1.50015 0 0 0 39 32.5 L 39 36.460938 L 32.585938 38.865234 L 25.169922 35.158203 A 1.50015 1.50015 0 0 0 23.439453 35.439453 L 20.878906 38 L 13.121094 38 L 10.880859 35.759766 L 10.048828 31.595703 L 10.923828 28.974609 A 1.50015 1.50015 0 0 0 10.841797 27.830078 L 8.0800781 22.304688 L 9.6171875 15.390625 C 9.6695786 15.154478 9.8612858 15 10.103516 15 L 12 15 L 12 12 L 10.103516 12 C 8.4717447 12 7.0411089 13.146382 6.6875 14.740234 L 5.0351562 22.173828 A 1.50015 1.50015 0 0 0 5.1582031 23.169922 L 7.8808594 28.615234 L 7.0761719 31.025391 A 1.50015 1.50015 0 0 0 7.0292969 31.794922 L 8.0292969 36.794922 A 1.50015 1.50015 0 0 0 8.4394531 37.560547 L 11.439453 40.560547 A 1.50015 1.50015 0 0 0 12.5 41 L 21.5 41 A 1.50015 1.50015 0 0 0 22.560547 40.560547 L 24.796875 38.324219 L 31.830078 41.841797 A 1.50015 1.50015 0 0 0 33.027344 41.904297 L 41.027344 38.904297 A 1.50015 1.50015 0 0 0 42 37.5 L 42 32.685547 L 42.955078 28.863281 A 1.50015 1.50015 0 0 0 42.841797 27.830078 L 40.433594 23.013672 L 42.332031 21.748047 A 1.50015 1.50015 0 0 0 43 20.5 L 43 12.5 C 43 10.585045 41.414955 9 39.5 9 L 36 9 z M 24 10.857422 A 2.143 2.143 0 0 0 24 15.142578 A 2.143 2.143 0 0 0 24 10.857422 z M 16.5 29 A 2.5 2.5 0 0 0 16.5 34 A 2.5 2.5 0 0 0 16.5 29 z"></path>
</svg>
