<?xml version="1.0" encoding="UTF-8" standalone="no"?>
<svg
   width="24"
   height="24"
   viewBox="0 0 24 24"
   fill="none"
   version="1.1"
   id="svg1"
   sodipodi:docname="mapsettings.svg"
   xmlns:inkscape="http://www.inkscape.org/namespaces/inkscape"
   xmlns:sodipodi="http://sodipodi.sourceforge.net/DTD/sodipodi-0.dtd"
   xmlns="http://www.w3.org/2000/svg"
   xmlns:svg="http://www.w3.org/2000/svg">
  <defs
     id="defs1" />
  <sodipodi:namedview
     id="namedview1"
     pagecolor="#505050"
     bordercolor="#eeeeee"
     borderopacity="1"
     inkscape:showpageshadow="0"
     inkscape:pageopacity="0"
     inkscape:pagecheckerboard="0"
     inkscape:deskcolor="#505050" />
  <path
     style="color:#000000;fill:#a3a3a3;stroke-linecap:round;stroke-linejoin:round;-inkscape-stroke:none"
     d="M 5.25,2.25 C 4.8357864,2.25 4.4980883,2.5857909 4.5,3 L 4.5477,13.33513 C 4.0617719,13.474041 3.4924552,14.015409 3.1289063,14.378906 2.5665259,14.94134 2.25,15.704667 2.25,16.5 c 0,0.795333 0.3165259,1.55866 0.8789063,2.121094 0.3635489,0.363497 0.8883273,0.855585 1.3742552,0.994496 L 4.5,21 c -9.459e-4,0.414213 0.3357864,0.75 0.75,0.75 C 5.6642136,21.75 6,21.414214 6,21 V 19.618751 C 6.4859279,19.47984 7.0075448,18.984591 7.3710937,18.621094 7.9334741,18.05866 8.25,17.295333 8.25,16.5 8.25,15.704667 7.9334741,14.94134 7.3710937,14.378906 7.0075448,14.015409 6.5336277,13.52016 6.0476998,13.381249 L 6,3 C 5.9980968,2.5857908 5.6642136,2.25 5.25,2.25 Z m 6.75,0 C 11.585786,2.25 11.25,2.5857864 11.25,3 V 4.4446012 C 10.764075,4.5835021 10.24249,5.0153574 9.8789063,5.3789062 9.3165148,5.9413111 9,6.70464 9,7.5 9,8.29536 9.3165148,9.0586889 9.8789063,9.6210938 10.24249,9.9846426 10.764075,10.416498 11.25,10.555399 V 21 c 0,0.414214 0.335786,0.75 0.75,0.75 0.414214,0 0.75,-0.335786 0.75,-0.75 V 10.514738 C 13.235925,10.375837 13.75751,9.9846426 14.121094,9.6210938 14.683394,9.0587133 15,8.2954019 15,7.5 15,6.7045981 14.683394,5.9412867 14.121094,5.3789062 13.75751,5.0153574 13.276586,4.5921221 12.790661,4.4532212 L 12.75,3 C 12.738415,2.5859484 12.414214,2.25 12,2.25 Z m 6.75,0 C 18.335786,2.25 18,2.5857864 18,3 v 10.460376 c -0.485918,0.138909 -1.007527,0.555049 -1.371094,0.91853 C 16.066631,14.941315 15.75,15.704625 15.75,16.5 c 0,0.795375 0.316631,1.558685 0.878906,2.121094 0.363567,0.363481 0.853342,0.620452 1.33926,0.759361 L 18,21 c 0.0081,0.414134 0.335786,0.75 0.75,0.75 0.414214,0 0.75,-0.335786 0.75,-0.75 V 19.412289 C 19.985918,19.27338 20.507527,18.984575 20.871094,18.621094 21.433369,18.058685 21.75,17.295375 21.75,16.5 c 0,-0.795375 -0.316631,-1.558685 -0.878906,-2.121094 -0.363567,-0.363481 -0.821509,-0.715954 -1.307427,-0.854863 L 19.5,3 C 19.497494,2.585794 19.164214,2.25 18.75,2.25 Z M 12,6 c 0.398065,0 0.778981,0.1579143 1.060547,0.4394531 C 13.342046,6.7209919 13.5,7.1019231 13.5,7.5 13.5,7.8980769 13.342046,8.2790081 13.060547,8.5605469 12.778981,8.8420857 12.398065,9 12,9 11.601935,9 11.221019,8.8420857 10.939453,8.5605469 10.657945,8.2790325 10.5,7.8981188 10.5,7.5 10.5,7.1018812 10.657945,6.7209675 10.939453,6.4394531 11.221019,6.1579143 11.601935,6 12,6 Z m -6.75,9 c 0.3980769,0 0.7790081,0.157954 1.0605469,0.439453 C 6.5920857,15.721019 6.75,16.101935 6.75,16.5 6.75,16.898065 6.5920857,17.278981 6.3105469,17.560547 6.0290081,17.842046 5.6480769,18 5.25,18 4.8519231,18 4.4709919,17.842046 4.1894531,17.560547 3.9079143,17.278981 3.75,16.898065 3.75,16.5 3.75,16.101935 3.9079143,15.721019 4.1894531,15.439453 4.4709919,15.157954 4.8519231,15 5.25,15 Z m 13.5,0 c 0.398024,0 0.778956,0.157929 1.060547,0.439453 C 20.092071,15.721044 20.25,16.101976 20.25,16.5 c 0,0.398024 -0.157929,0.778956 -0.439453,1.060547 C 19.528956,17.842071 19.148024,18 18.75,18 18.351976,18 17.971044,17.842071 17.689453,17.560547 17.407929,17.278956 17.25,16.898024 17.25,16.5 c 0,-0.398024 0.157929,-0.778956 0.439453,-1.060547 C 17.971044,15.157929 18.351976,15 18.75,15 Z"
     id="path1"
     sodipodi:nodetypes="ssccsccsssccsccssssccsccsssccsccssssccsccsssccsccssscscscscsscscscscsscscscscs" />
</svg>
