<svg width="24" height="24" viewBox="0 0 24 24" fill="none" xmlns="http://www.w3.org/2000/svg">
<path d="M16.906 2C16.906 2 14.3571 1.99445 11.7631 2.55737C10.4661 2.83883 9.14788 3.25483 8.08048 3.94973C7.01308 4.64464 6.15725 5.73267 6.15725 7.13453C6.15725 8.97216 7.55618 10.2644 8.71848 11.5956C9.88078 12.9268 10.8762 14.2379 10.8762 15.7822C10.8762 16.6604 10.5828 17.2794 10.102 17.8163C9.62122 18.3532 8.93239 18.779 8.21463 19.0873C6.7791 19.7039 5.30521 19.8389 5.30521 19.8389C5.1999 19.8445 5.09675 19.8718 5.00189 19.9192C4.90703 19.9667 4.8224 20.0333 4.75302 20.1152C4.68364 20.197 4.63093 20.2924 4.59802 20.3956C4.56512 20.4989 4.5527 20.6079 4.56149 20.7163C4.57028 20.8246 4.6001 20.9299 4.64919 21.0261C4.69829 21.1223 4.76564 21.2074 4.84725 21.2762C4.92885 21.345 5.02305 21.3962 5.12425 21.4268C5.22544 21.4573 5.33156 21.4666 5.43629 21.454C5.43629 21.454 7.10838 21.3188 8.81884 20.5842C9.67407 20.2169 10.5582 19.6968 11.2572 18.9163C11.9561 18.1358 12.4492 17.0658 12.4492 15.7822C12.4492 13.543 11.0852 11.8816 9.88799 10.5104C8.6908 9.13924 7.73024 7.9993 7.73024 7.13453C7.73024 6.37449 8.11969 5.84109 8.92023 5.31992C9.65869 4.83916 10.7223 4.47943 11.8184 4.22103C11.281 4.83117 10.8762 5.63244 10.8762 6.59406C10.8762 7.94525 11.5472 9.06705 12.4144 9.97204C13.2816 10.877 14.366 11.6279 15.4139 12.3651C16.4619 13.1023 17.4725 13.8254 18.1779 14.5714C18.8834 15.3173 19.2655 16.0253 19.2655 16.8631C19.2655 17.6159 19.0266 18.143 18.6388 18.6028C18.2509 19.0626 17.6936 19.4331 17.1078 19.7048C15.9361 20.2483 14.7309 20.3804 14.7309 20.3804C14.626 20.3881 14.5236 20.4174 14.4299 20.4666C14.3362 20.5157 14.253 20.5838 14.1852 20.6667C14.1174 20.7495 14.0665 20.8456 14.0353 20.9491C14.0042 21.0527 13.9935 21.1616 14.0039 21.2695C14.0143 21.3773 14.0456 21.482 14.0959 21.5771C14.1462 21.6723 14.2146 21.7561 14.2969 21.8236C14.3791 21.8911 14.4737 21.9409 14.575 21.9701C14.6763 21.9993 14.7822 22.0072 14.8865 21.9934C14.8865 21.9934 16.303 21.8553 17.753 21.1827C18.478 20.8464 19.2315 20.3725 19.8267 19.6668C20.422 18.9612 20.8385 18.002 20.8385 16.8631C20.8385 15.4955 20.172 14.3571 19.3044 13.4397C18.4369 12.5224 17.3502 11.7648 16.3008 11.0266C15.2514 10.2884 14.2385 9.56965 13.5327 8.83303C12.8269 8.0964 12.4492 7.40477 12.4492 6.59406C12.4492 6.00854 12.6577 5.60007 13.0381 5.20803C13.4184 4.81598 13.9838 4.48325 14.5762 4.23897C15.7612 3.75041 16.9839 3.61721 16.9839 3.61721C17.184 3.59569 17.3685 3.49594 17.4995 3.33846C17.6304 3.18099 17.6978 2.97777 17.6879 2.77062C17.6779 2.56346 17.5913 2.36812 17.4459 2.22478C17.3004 2.08144 17.1072 2.001 16.906 2ZM19.4509 3.62671C19.195 3.64041 18.9478 3.72659 18.7364 3.87577C18.525 4.02496 18.3576 4.23136 18.2527 4.47226C18.2402 4.50044 18.2292 4.52934 18.2199 4.55882L17.2757 7.46389C17.1806 7.69241 17.1412 7.94143 17.1608 8.18926C17.1805 8.43709 17.2586 8.67622 17.3884 8.88581C17.5135 9.09208 17.6874 9.26226 17.8937 9.38042C18.1001 9.49857 18.3321 9.56084 18.5681 9.5614H18.7412V10.9179C18.7397 11.0253 18.759 11.132 18.7978 11.2317C18.8367 11.3313 18.8944 11.4221 18.9676 11.4986C19.0408 11.5751 19.128 11.6359 19.2241 11.6773C19.3203 11.7188 19.4235 11.7401 19.5277 11.7401C19.6319 11.7401 19.7351 11.7188 19.8313 11.6773C19.9274 11.6359 20.0146 11.5751 20.0878 11.4986C20.161 11.4221 20.2187 11.3313 20.2575 11.2317C20.2964 11.132 20.3157 11.0253 20.3142 10.9179V9.5614H20.476C20.712 9.56061 20.9439 9.49811 21.15 9.37977C21.3562 9.26143 21.5298 9.09111 21.6547 8.88475C21.7849 8.67559 21.8635 8.43678 21.8837 8.18913C21.9039 7.94148 21.865 7.6925 21.7704 7.46389L20.8262 4.55882C20.8169 4.52934 20.806 4.50044 20.7935 4.47226C20.6784 4.20824 20.4887 3.98622 20.2491 3.83533C20.0095 3.68444 19.7313 3.61172 19.4509 3.62671ZM5.29497 10.6529C5.03912 10.6666 4.7919 10.7528 4.5805 10.902C4.36911 11.0512 4.20173 11.2576 4.09679 11.4985C4.08425 11.5266 4.07331 11.5555 4.06402 11.585L3.11981 14.4901C3.02472 14.7186 2.98528 14.9676 3.00491 15.2155C3.02454 15.4633 3.10266 15.7024 3.23246 15.912C3.35761 16.1183 3.53149 16.2885 3.73782 16.4066C3.94414 16.5248 4.17618 16.587 4.41221 16.5876H4.58425V17.9441C4.58278 18.0515 4.60203 18.1582 4.6409 18.2579C4.67976 18.3576 4.73746 18.4483 4.81064 18.5248C4.88382 18.6013 4.97102 18.6621 5.06717 18.7035C5.16333 18.745 5.26652 18.7663 5.37075 18.7663C5.47498 18.7663 5.57817 18.745 5.67433 18.7035C5.77048 18.6621 5.85768 18.6013 5.93086 18.5248C6.00404 18.4483 6.06174 18.3576 6.1006 18.2579C6.13947 18.1582 6.15872 18.0515 6.15725 17.9441V16.5876H6.32008C6.55604 16.5868 6.78794 16.5243 6.99409 16.406C7.20024 16.2876 7.37389 16.1173 7.4988 15.911C7.62851 15.7015 7.70658 15.4626 7.72621 15.2149C7.74585 14.9673 7.70645 14.7184 7.61145 14.4901L6.67031 11.585C6.66103 11.5555 6.65009 11.5266 6.63754 11.4985C6.52253 11.2344 6.33278 11.0124 6.09319 10.8615C5.8536 10.7106 5.57536 10.6379 5.29497 10.6529Z" fill="#A3A3A3"/>
</svg>
