<svg xmlns="http://www.w3.org/2000/svg" x="0px" y="0px" width="48" height="48" viewBox="0 0 48 48">
<path d="M 17 3 C 15.041667 3 13.395258 3.9841074 12.412109 5.3359375 C 11.428961 6.6877676 11 8.3522728 11 10 C 11 11.647727 11.428961 13.312232 12.412109 14.664062 C 13.395258 16.015893 15.041667 17 17 17 C 18.958333 17 20.604742 16.015893 21.587891 14.664062 C 22.571039 13.312233 23 11.647727 23 10 C 23 8.3522728 22.571039 6.6877676 21.587891 5.3359375 C 20.604742 3.9841074 18.958333 3 17 3 z M 31 3 C 29.041667 3 27.395258 3.9841074 26.412109 5.3359375 C 25.428961 6.6877676 25 8.3522728 25 10 C 25 11.647727 25.428961 13.312232 26.412109 14.664062 C 27.395258 16.015893 29.041667 17 31 17 C 32.958333 17 34.604742 16.015893 35.587891 14.664062 C 36.571039 13.312233 37 11.647727 37 10 C 37 8.3522728 36.571039 6.6877676 35.587891 5.3359375 C 34.604742 3.9841074 32.958333 3 31 3 z M 17 6 C 18.041666 6 18.645259 6.3908926 19.162109 7.1015625 C 19.67896 7.8122324 20 8.8977272 20 10 C 20 11.102273 19.67896 12.187767 19.162109 12.898438 C 18.645259 13.609106 18.041666 14 17 14 C 15.958334 14 15.354741 13.609107 14.837891 12.898438 C 14.32104 12.187767 14 11.102273 14 10 C 14 8.8977272 14.32104 7.8122324 14.837891 7.1015625 C 15.354741 6.3908926 15.958334 6 17 6 z M 31 6 C 32.041666 6 32.645259 6.3908926 33.162109 7.1015625 C 33.67896 7.8122324 34 8.8977272 34 10 C 34 11.102273 33.67896 12.187767 33.162109 12.898438 C 32.645259 13.609106 32.041666 14 31 14 C 29.958334 14 29.354741 13.609107 28.837891 12.898438 C 28.32104 12.187767 28 11.102273 28 10 C 28 8.8977272 28.32104 7.8122324 28.837891 7.1015625 C 29.354741 6.3908926 29.958334 6 31 6 z M 8 16 C 6.0416671 16 4.3952581 16.984107 3.4121094 18.335938 C 2.4289607 19.687767 2 21.352273 2 23 C 2 24.647727 2.4289607 26.312232 3.4121094 27.664062 C 4.3952581 29.015893 6.0416671 30 8 30 C 9.9583329 30 11.604742 29.015894 12.587891 27.664062 C 13.571039 26.312233 14 24.647727 14 23 C 14 21.352273 13.571039 19.687767 12.587891 18.335938 C 11.604742 16.984107 9.9583329 16 8 16 z M 40 16 C 38.041667 16 36.395258 16.984107 35.412109 18.335938 C 34.428961 19.687767 34 21.352273 34 23 C 34 24.647727 34.428961 26.312232 35.412109 27.664062 C 36.395258 29.015893 38.041667 30 40 30 C 41.958333 30 43.604742 29.015894 44.587891 27.664062 C 45.571039 26.312233 46 24.647727 46 23 C 46 21.352273 45.571039 19.687767 44.587891 18.335938 C 43.604742 16.984107 41.958333 16 40 16 z M 8 19 C 9.0416658 19 9.6452591 19.390893 10.162109 20.101562 C 10.67896 20.812233 11 21.897727 11 23 C 11 24.102273 10.67896 25.187768 10.162109 25.898438 C 9.6452591 26.609107 9.0416658 27 8 27 C 6.9583342 27 6.3547413 26.609106 5.8378906 25.898438 C 5.32104 25.187767 5 24.102273 5 23 C 5 21.897727 5.32104 20.812233 5.8378906 20.101562 C 6.3547413 19.390893 6.9583342 19 8 19 z M 24 19 C 21.046667 19 18.967344 21.084217 17.759766 23.199219 C 16.552187 25.314221 15.998748 27.496099 15.998047 29.058594 C 15.998047 29.2409 15.989847 29.268221 15.806641 29.492188 C 15.623435 29.716154 15.241672 30.046522 14.757812 30.478516 C 13.790095 31.342502 12.451028 32.7681 12.101562 35.087891 C 11.423512 39.58947 14.706583 43.90101 19.332031 43.998047 A 1.50015 1.50015 0 0 0 19.333984 43.998047 C 21.115034 44.034627 22.682424 43.328251 24.003906 42.308594 C 25.346921 43.34294 26.944403 44.053968 28.755859 43.996094 C 33.442206 43.844881 36.667772 39.418182 35.863281 34.878906 C 35.464973 32.629865 34.138507 31.259151 33.199219 30.419922 C 32.729575 30.000307 32.364054 29.678676 32.189453 29.458984 C 32.014853 29.239292 32 29.202312 32 29 C 32 27.418009 31.44734 25.236246 30.236328 23.140625 C 29.025316 21.045004 26.939889 19 24 19 z M 40 19 C 41.041666 19 41.645259 19.390893 42.162109 20.101562 C 42.67896 20.812233 43 21.897727 43 23 C 43 24.102273 42.67896 25.187768 42.162109 25.898438 C 41.645259 26.609107 41.041666 27 40 27 C 38.958334 27 38.354741 26.609106 37.837891 25.898438 C 37.32104 25.187767 37 24.102273 37 23 C 37 21.897727 37.32104 20.812233 37.837891 20.101562 C 38.354741 19.390893 38.958334 19 40 19 z M 24 22 C 25.560111 22 26.724684 23.058996 27.638672 24.640625 C 28.55266 26.222254 29 28.290991 29 29 C 29 29.922188 29.388991 30.756426 29.841797 31.326172 C 30.294603 31.895917 30.780191 32.282068 31.201172 32.658203 C 32.043134 33.410474 32.659418 33.986385 32.910156 35.402344 C 33.425666 38.311068 31.53581 40.905259 28.660156 40.998047 C 27.214896 41.044217 25.974592 40.472718 25.125 39.507812 A 1.50015 1.50015 0 0 0 22.875 39.507812 C 22.036634 40.459995 20.817193 41.029222 19.394531 41 C 16.583979 40.94104 14.636458 38.389577 15.066406 35.535156 C 15.288941 34.057947 15.909077 33.47281 16.755859 32.716797 C 17.17925 32.33879 17.667424 31.956736 18.128906 31.392578 C 18.590049 30.828835 18.997447 29.991916 18.998047 29.060547 L 18.998047 29.058594 C 18.998806 28.391005 19.448035 26.29392 20.365234 24.6875 C 21.282906 23.080252 22.453333 22 24 22 z"></path>
</svg>
