<svg xmlns="http://www.w3.org/2000/svg" x="0px" y="0px" width="100" height="100" viewBox="0 0 48 48">
<path d="M 26.476562 1.9785156 A 1.50015 1.50015 0 0 0 25 3.5 L 25 5 L 12.746094 5 A 1.50015 1.50015 0 0 0 12.476562 4.9785156 A 1.50015 1.50015 0 0 0 12.259766 5 L 10.5 5 A 1.50015 1.50015 0 1 0 10.5 8 L 10.927734 8 C 10.841254 13.086936 10.397541 17.436359 9.4355469 20.728516 C 8.373091 24.364476 6.7920947 26.807391 4.65625 28.259766 A 1.50015 1.50015 0 0 0 5.5 31 L 11 31 L 11 33.5 C 11 35.964706 13.035294 38 15.5 38 L 21.291016 38 L 18.179688 43.789062 A 1.50015 1.50015 0 1 0 20.820312 45.210938 L 24.697266 38 L 28.302734 38 L 32.179688 45.210938 A 1.50015 1.50015 0 1 0 34.820312 43.789062 L 31.708984 38 L 37.5 38 C 39.964706 38 42 35.964706 42 33.5 L 42 8 L 42.5 8 A 1.50015 1.50015 0 1 0 42.5 5 L 40.746094 5 A 1.50015 1.50015 0 0 0 40.259766 5 L 28 5 L 28 3.5 A 1.50015 1.50015 0 0 0 26.476562 1.9785156 z M 13.927734 8 L 26.253906 8 A 1.50015 1.50015 0 0 0 26.740234 8 L 38.927734 8 C 38.841254 13.086936 38.397541 17.436359 37.435547 20.728516 C 36.419906 24.204265 34.897353 26.527874 32.902344 28 L 9.140625 28 C 10.505389 26.242673 11.572695 24.108773 12.314453 21.570312 C 13.394114 17.875471 13.844085 13.282055 13.927734 8 z M 39 25.033203 L 39 33.5 C 39 34.435294 38.435294 35 37.5 35 L 29.421875 35 A 1.50015 1.50015 0 0 0 29.177734 34.980469 A 1.50015 1.50015 0 0 0 28.953125 35 L 24.03125 35 A 1.50015 1.50015 0 0 0 23.777344 34.982422 A 1.50015 1.50015 0 0 0 23.585938 35 L 15.5 35 C 14.564706 35 14 34.435294 14 33.5 L 14 31 L 33.5 31 A 1.50015 1.50015 0 0 0 34.34375 30.740234 C 36.329543 29.389895 37.851657 27.445845 39 25.033203 z"></path>
</svg>
