<svg width="24" height="24" viewBox="0 0 24 24" fill="none" xmlns="http://www.w3.org/2000/svg">
<path d="M21.988 15.2926C21.9879 15.7523 21.9278 16.214 21.7472 16.6368C21.281 17.7279 20.5563 18.5941 19.3758 19.0728C17.0691 20.0073 14.5053 18.818 13.7658 16.4313C13.6332 16.0026 13.4484 15.861 13.0264 15.8772C12.3633 15.9014 11.6962 15.9055 11.0332 15.8772C10.5831 15.8569 10.3862 16.0066 10.2415 16.4597C9.6588 18.3123 7.94687 19.4773 6.02998 19.3883C4.13721 19.2994 2.5177 17.9402 2.11182 16.0632C1.93902 15.2663 1.9551 14.4573 2.24042 13.6887C2.97583 11.7066 3.74338 9.74066 4.49889 7.76663C4.68374 7.28121 4.93692 6.79984 5.387 6.545C5.96568 6.21329 6.25904 5.71574 6.53231 5.14538C6.95427 4.26758 7.93481 3.83879 8.87115 4.05723C9.87179 4.29185 10.4465 5.02402 10.4545 6.07576C10.4585 6.67849 10.4665 7.28121 10.4545 7.88394C10.4465 8.22778 10.575 8.35722 10.9206 8.34913C11.652 8.33295 12.3834 8.33295 13.1148 8.34913C13.4644 8.35722 13.585 8.22373 13.577 7.8799C13.5609 7.23267 13.5649 6.58545 13.577 5.93822C13.593 5.00784 14.2119 4.27567 15.1563 4.05319C16.0283 3.84688 17.0852 4.25544 17.4389 5.02402C17.7322 5.6672 18.0859 6.18498 18.6927 6.58949C19.3879 7.05469 19.6009 7.88394 19.8822 8.63229C20.4651 10.1726 21.0453 11.7129 21.6273 13.2532C21.8734 13.9046 21.9959 14.5963 21.988 15.2926V15.2926V15.2926ZM6.25904 18.1424C7.92677 18.1384 9.23685 16.8156 9.23283 15.1328C9.23283 13.446 7.93079 12.1313 6.25503 12.1192C4.58328 12.1071 3.25311 13.4258 3.24507 15.1045C3.23704 16.8237 4.55113 18.1465 6.25904 18.1424ZM17.7604 18.1424C19.4361 18.1465 20.7582 16.8399 20.7743 15.1652C20.7904 13.4824 19.4924 12.1435 17.8246 12.1192C16.1248 12.0949 14.7825 13.4258 14.7866 15.1369C14.7866 16.8237 16.0926 18.1384 17.7644 18.1424H17.7604ZM9.22881 12.0707C9.22881 10.8612 9.2489 9.83775 9.22077 8.81837C9.20068 8.05788 8.60592 7.31762 7.93883 7.13559C7.05473 6.89693 6.21886 7.1275 5.81298 7.91226C5.28654 8.91545 4.9128 9.99551 4.55515 11.1646C6.2711 10.6266 7.77808 10.8329 9.22881 12.0747V12.0707ZM14.7866 12.0707C16.2453 10.8207 17.7604 10.6346 19.5165 11.1686C19.0704 10.0279 18.7248 8.97613 18.2506 7.98507C17.8568 7.1639 16.9968 6.88883 16.0886 7.13154C15.3572 7.32571 14.8107 8.02552 14.7906 8.875C14.7665 9.87415 14.7866 10.8774 14.7866 12.0707ZM10.4545 11.298C10.4545 11.6742 10.4746 12.0545 10.4505 12.4307C10.4223 12.8392 10.5791 12.9808 10.9809 12.9687C11.6641 12.9444 12.3473 12.9444 13.0304 12.9687C13.4243 12.9808 13.5971 12.8595 13.5689 12.4388C13.5408 11.9736 13.5649 11.5084 13.5649 11.0392C13.5649 10.0845 13.092 9.60717 12.1463 9.60717C11.0184 9.60717 10.4545 10.1695 10.4545 11.294V11.298ZM11.9655 14.6353C12.4075 14.6353 12.8536 14.6353 13.2957 14.6353C13.4484 14.6353 13.5528 14.5584 13.5368 14.3926C13.5207 14.2429 13.3921 14.2389 13.2876 14.2389C12.4437 14.2348 11.6038 14.2348 10.7599 14.2389C10.6273 14.2389 10.4706 14.247 10.4826 14.4371C10.4907 14.6029 10.6273 14.6434 10.772 14.6434C11.1698 14.6434 11.5717 14.6434 11.9695 14.6434L11.9655 14.6353ZM14.8388 6.30633C15.2567 6.15666 15.6626 6.00699 16.0725 5.86541C16.173 5.82901 16.3136 5.8371 16.3378 5.71574C16.3659 5.57012 16.2493 5.47708 16.1368 5.40427C15.8113 5.19796 15.4738 5.19392 15.1482 5.38808C14.7986 5.59843 14.7183 5.91395 14.8428 6.30229L14.8388 6.30633ZM9.18862 6.31847C9.31722 5.81687 9.15647 5.50135 8.76265 5.33145C8.44518 5.19392 8.11163 5.2101 7.83033 5.44876C7.66154 5.59034 7.49678 5.78046 7.86649 5.84114C8.33265 5.91395 8.71844 6.19711 9.19264 6.31847H9.18862Z" fill="#A3A3A3"/>
</svg>
