<svg width="24" height="24" viewBox="0 0 24 24" fill="none" xmlns="http://www.w3.org/2000/svg">
<path d="M10.25 2C9.1017 2 8.15285 2.88331 8.02539 4H6.25C5.01625 4 4 5.01625 4 6.25V19.75C4 20.9838 5.01625 22 6.25 22H17.75C18.9838 22 20 20.9838 20 19.75V6.25C20 5.01625 18.9838 4 17.75 4H15.9746C15.8471 2.88331 14.8983 2 13.75 2H10.25ZM10.25 3.5H13.75C14.1732 3.5 14.5 3.82675 14.5 4.25C14.5 4.67325 14.1732 5 13.75 5H10.25C9.82675 5 9.5 4.67325 9.5 4.25C9.5 3.82675 9.82675 3.5 10.25 3.5ZM6.25 5.5H8.38477C8.79062 6.10095 9.47736 6.5 10.25 6.5H13.75C14.5226 6.5 15.2094 6.10095 15.6152 5.5H17.75C18.1732 5.5 18.5 5.82675 18.5 6.25V19.75C18.5 20.1732 18.1732 20.5 17.75 20.5H6.25C5.82675 20.5 5.5 20.1732 5.5 19.75V6.25C5.5 5.82675 5.82675 5.5 6.25 5.5ZM7.75 10C7.65062 9.99859 7.55194 10.017 7.45972 10.054C7.36749 10.0911 7.28355 10.1461 7.21277 10.2159C7.142 10.2857 7.08579 10.3688 7.04743 10.4605C7.00907 10.5522 6.98932 10.6506 6.98932 10.75C6.98932 10.8494 7.00907 10.9478 7.04743 11.0395C7.08579 11.1312 7.142 11.2143 7.21277 11.2841C7.28355 11.3539 7.36749 11.4089 7.45972 11.446C7.55194 11.483 7.65062 11.5014 7.75 11.5H12.75C12.8494 11.5014 12.9481 11.483 13.0403 11.446C13.1325 11.4089 13.2164 11.3539 13.2872 11.2841C13.358 11.2143 13.4142 11.1312 13.4526 11.0395C13.4909 10.9478 13.5107 10.8494 13.5107 10.75C13.5107 10.6506 13.4909 10.5522 13.4526 10.4605C13.4142 10.3688 13.358 10.2857 13.2872 10.2159C13.2164 10.1461 13.1325 10.0911 13.0403 10.054C12.9481 10.017 12.8494 9.99859 12.75 10H7.75ZM15.25 10C15.1506 9.99859 15.0519 10.017 14.9597 10.054C14.8675 10.0911 14.7836 10.1461 14.7128 10.2159C14.642 10.2857 14.5858 10.3688 14.5474 10.4605C14.5091 10.5522 14.4893 10.6506 14.4893 10.75C14.4893 10.8494 14.5091 10.9478 14.5474 11.0395C14.5858 11.1312 14.642 11.2143 14.7128 11.2841C14.7836 11.3539 14.8675 11.4089 14.9597 11.446C15.0519 11.483 15.1506 11.5014 15.25 11.5H16.25C16.3494 11.5014 16.4481 11.483 16.5403 11.446C16.6325 11.4089 16.7164 11.3539 16.7872 11.2841C16.858 11.2143 16.9142 11.1312 16.9526 11.0395C16.9909 10.9478 17.0107 10.8494 17.0107 10.75C17.0107 10.6506 16.9909 10.5522 16.9526 10.4605C16.9142 10.3688 16.858 10.2857 16.7872 10.2159C16.7164 10.1461 16.6325 10.0911 16.5403 10.054C16.4481 10.017 16.3494 9.99859 16.25 10H15.25ZM7.75 13C7.65062 12.9986 7.55194 13.017 7.45972 13.054C7.36749 13.0911 7.28355 13.1461 7.21277 13.2159C7.142 13.2857 7.08579 13.3688 7.04743 13.4605C7.00907 13.5522 6.98932 13.6506 6.98932 13.75C6.98932 13.8494 7.00907 13.9478 7.04743 14.0395C7.08579 14.1312 7.142 14.2143 7.21277 14.2841C7.28355 14.3539 7.36749 14.4089 7.45972 14.446C7.55194 14.483 7.65062 14.5014 7.75 14.5H12.75C12.8494 14.5014 12.9481 14.483 13.0403 14.446C13.1325 14.4089 13.2164 14.3539 13.2872 14.2841C13.358 14.2143 13.4142 14.1312 13.4526 14.0395C13.4909 13.9478 13.5107 13.8494 13.5107 13.75C13.5107 13.6506 13.4909 13.5522 13.4526 13.4605C13.4142 13.3688 13.358 13.2857 13.2872 13.2159C13.2164 13.1461 13.1325 13.0911 13.0403 13.054C12.9481 13.017 12.8494 12.9986 12.75 13H7.75ZM15.25 13C15.1506 12.9986 15.0519 13.017 14.9597 13.054C14.8675 13.0911 14.7836 13.1461 14.7128 13.2159C14.642 13.2857 14.5858 13.3688 14.5474 13.4605C14.5091 13.5522 14.4893 13.6506 14.4893 13.75C14.4893 13.8494 14.5091 13.9478 14.5474 14.0395C14.5858 14.1312 14.642 14.2143 14.7128 14.2841C14.7836 14.3539 14.8675 14.4089 14.9597 14.446C15.0519 14.483 15.1506 14.5014 15.25 14.5H16.25C16.3494 14.5014 16.4481 14.483 16.5403 14.446C16.6325 14.4089 16.7164 14.3539 16.7872 14.2841C16.858 14.2143 16.9142 14.1312 16.9526 14.0395C16.9909 13.9478 17.0107 13.8494 17.0107 13.75C17.0107 13.6506 16.9909 13.5522 16.9526 13.4605C16.9142 13.3688 16.858 13.2857 16.7872 13.2159C16.7164 13.1461 16.6325 13.0911 16.5403 13.054C16.4481 13.017 16.3494 12.9986 16.25 13H15.25ZM7.75 16C7.65062 15.9986 7.55194 16.017 7.45972 16.054C7.36749 16.0911 7.28355 16.1461 7.21277 16.2159C7.142 16.2857 7.08579 16.3688 7.04743 16.4605C7.00907 16.5522 6.98932 16.6506 6.98932 16.75C6.98932 16.8494 7.00907 16.9478 7.04743 17.0395C7.08579 17.1312 7.142 17.2143 7.21277 17.2841C7.28355 17.3539 7.36749 17.4089 7.45972 17.446C7.55194 17.483 7.65062 17.5014 7.75 17.5H12.75C12.8494 17.5014 12.9481 17.483 13.0403 17.446C13.1325 17.4089 13.2164 17.3539 13.2872 17.2841C13.358 17.2143 13.4142 17.1312 13.4526 17.0395C13.4909 16.9478 13.5107 16.8494 13.5107 16.75C13.5107 16.6506 13.4909 16.5522 13.4526 16.4605C13.4142 16.3688 13.358 16.2857 13.2872 16.2159C13.2164 16.1461 13.1325 16.0911 13.0403 16.054C12.9481 16.017 12.8494 15.9986 12.75 16H7.75ZM15.25 16C15.1506 15.9986 15.0519 16.017 14.9597 16.054C14.8675 16.0911 14.7836 16.1461 14.7128 16.2159C14.642 16.2857 14.5858 16.3688 14.5474 16.4605C14.5091 16.5522 14.4893 16.6506 14.4893 16.75C14.4893 16.8494 14.5091 16.9478 14.5474 17.0395C14.5858 17.1312 14.642 17.2143 14.7128 17.2841C14.7836 17.3539 14.8675 17.4089 14.9597 17.446C15.0519 17.483 15.1506 17.5014 15.25 17.5H16.25C16.3494 17.5014 16.4481 17.483 16.5403 17.446C16.6325 17.4089 16.7164 17.3539 16.7872 17.2841C16.858 17.2143 16.9142 17.1312 16.9526 17.0395C16.9909 16.9478 17.0107 16.8494 17.0107 16.75C17.0107 16.6506 16.9909 16.5522 16.9526 16.4605C16.9142 16.3688 16.858 16.2857 16.7872 16.2159C16.7164 16.1461 16.6325 16.0911 16.5403 16.054C16.4481 16.017 16.3494 15.9986 16.25 16H15.25Z" fill="#A3A3A3"/>
</svg>
