<?xml version="1.0" encoding="UTF-8" standalone="no"?>
<svg
   width="24"
   height="24"
   viewBox="0 0 24 24"
   fill="none"
   version="1.1"
   id="svg1"
   xmlns="http://www.w3.org/2000/svg"
   xmlns:svg="http://www.w3.org/2000/svg">
  <defs
     id="defs1" />
  <path
     style="color:#000000;fill:#a3a3a3;fill-opacity:1;stroke-linecap:round;stroke-linejoin:round;-inkscape-stroke:none"
     d="m 10.828125,2.25 c -0.7084,0 -1.3897692,0.2729976 -1.8964844,0.765625 C 8.6277662,3.3110675 8.5851807,3.7447147 8.453125,4.1386719 H 6.9433594 c -0.7083879,0 -1.3897741,0.2730023 -1.8964844,0.765625 C 4.5401634,5.3969347 4.25,6.0720808 4.25,6.7773437 V 18.111328 c 0,0.705281 0.2902358,1.380396 0.796875,1.873047 C 5.5535874,20.476958 6.2349812,20.75 6.9433594,20.75 H 16.65625 c 0.708391,0 1.391741,-0.272976 1.898437,-0.765625 0.506693,-0.492649 0.794922,-1.167756 0.794922,-1.873047 V 6.7773437 c 0,-0.7052729 -0.29011,-1.3804113 -0.796875,-1.8730468 -0.506555,-0.4918635 -1.18871,-0.765625 -1.896484,-0.765625 H 15.146484 C 15.014418,3.744705 14.971887,3.3110694 14.667969,3.015625 14.161274,2.5229367 13.479885,2.25 12.771484,2.25 Z m 0,1.5 h 1.943359 c 0.322199,0 0.629658,0.1260259 0.851563,0.3417969 0.222034,0.2158437 0.341797,0.5002089 0.341797,0.796875 0,0.2966519 -0.119768,0.5829893 -0.341797,0.7988281 -0.221905,0.215771 -0.529364,0.3398437 -0.851563,0.3398437 h -1.943359 c -0.322199,0 -0.627605,-0.1240118 -0.8496094,-0.3398437 -0.222002,-0.2158419 -0.34375,-0.5021762 -0.34375,-0.7988281 0,-0.2966661 0.1217429,-0.5810282 0.34375,-0.796875 C 10.20052,3.875965 10.505926,3.75 10.828125,3.75 Z M 6.9433594,5.6386719 H 8.453125 c 0.1320547,0.3939566 0.1746382,0.8276014 0.4785156,1.1230468 0.5067152,0.4926275 1.1880844,0.765625 1.8964844,0.765625 h 1.943359 c 0.708401,0 1.38979,-0.2729367 1.896485,-0.765625 0.303921,-0.2954473 0.34645,-0.7290805 0.478515,-1.1230468 h 1.509766 c 0.322199,0 0.629658,0.1260258 0.851562,0.3417968 0.222035,0.2158438 0.341797,0.500209 0.341797,0.796875 V 18.111328 c 0,0.296708 -0.11969,0.580924 -0.341797,0.796875 C 17.28591,19.123954 16.978458,19.25 16.65625,19.25 H 6.9433594 C 6.6211786,19.25 6.3138038,19.124019 6.0917969,18.908203 5.8697168,18.692255 5.75,18.408046 5.75,18.111328 V 6.7773437 C 5.75,6.4806677 5.8697892,6.1963102 6.0917969,5.9804687 6.3138058,5.7646321 6.6211883,5.6386719 6.9433594,5.6386719 Z M 8.8847656,10.75 a 0.75,0.75 0 0 0 -0.75,0.75 0.75,0.75 0 0 0 0.75,0.75 h 0.00977 a 0.75,0.75 0 0 0 0.75,-0.75 0.75,0.75 0 0 0 -0.75,-0.75 z m 2.9160154,0 a 0.75,0.75 0 0 0 -0.75,0.75 0.75,0.75 0 0 0 0.75,0.75 h 2.914063 a 0.75,0.75 0 0 0 0.75,-0.75 0.75,0.75 0 0 0 -0.75,-0.75 z m -2.9160154,3.777344 a 0.75,0.75 0 0 0 -0.75,0.75 0.75,0.75 0 0 0 0.75,0.75 h 0.00977 a 0.75,0.75 0 0 0 0.75,-0.75 0.75,0.75 0 0 0 -0.75,-0.75 z m 2.9160154,0 a 0.75,0.75 0 0 0 -0.75,0.75 0.75,0.75 0 0 0 0.75,0.75 h 2.914063 a 0.75,0.75 0 0 0 0.75,-0.75 0.75,0.75 0 0 0 -0.75,-0.75 z"
     id="path1" />
</svg>
