<svg width="24" height="24" viewBox="0 0 24 24" fill="none" xmlns="http://www.w3.org/2000/svg">
<path d="M12 2C6.48615 2 2 6.48615 2 12C2 13.6377 2.43135 15.1684 3.13086 16.5332L2.04688 20.4141C1.7944 21.3158 2.68596 22.2073 3.58789 21.9551L7.47168 20.8711C8.83537 21.5691 10.3639 22 12 22C17.5139 22 22 17.5139 22 12C22 6.48615 17.5139 2 12 2ZM12 3.5C16.7031 3.5 20.5 7.29685 20.5 12C20.5 16.7031 16.7031 20.5 12 20.5C10.4992 20.5 9.0953 20.1097 7.87109 19.4277C7.69853 19.3316 7.495 19.3073 7.30469 19.3604L3.61133 20.3906L4.64258 16.6992C4.69585 16.5086 4.67163 16.3047 4.5752 16.1318C3.89183 14.9067 3.5 13.5023 3.5 12C3.5 7.29685 7.29685 3.5 12 3.5ZM15.7383 6.49023C15.5395 6.49334 15.3502 6.5752 15.2117 6.71784C15.0733 6.86048 14.9971 7.05223 15 7.25098V9.62793C14.9868 9.70844 14.9868 9.79058 15 9.87109V13.751C14.9986 13.8504 15.017 13.949 15.054 14.0413C15.0911 14.1335 15.1461 14.2174 15.2159 14.2882C15.2857 14.359 15.3688 14.4152 15.4605 14.4535C15.5522 14.4919 15.6506 14.5117 15.75 14.5117C15.8494 14.5117 15.9478 14.4919 16.0395 14.4535C16.1312 14.4152 16.2143 14.359 16.2841 14.2882C16.3539 14.2174 16.4089 14.1335 16.446 14.0413C16.483 13.949 16.5014 13.8504 16.5 13.751V10.501H17.25C17.3494 10.5024 17.4481 10.484 17.5403 10.447C17.6325 10.4099 17.7164 10.3549 17.7872 10.2851C17.858 10.2153 17.9142 10.1322 17.9526 10.0405C17.9909 9.94877 18.0107 9.85037 18.0107 9.75098C18.0107 9.65158 17.9909 9.55318 17.9526 9.46149C17.9142 9.36979 17.858 9.28664 17.7872 9.21686C17.7164 9.14707 17.6325 9.09205 17.5403 9.05499C17.4481 9.01793 17.3494 8.99957 17.25 9.00098H16.5V7.25098C16.5014 7.15059 16.4827 7.05094 16.4449 6.95793C16.4071 6.86492 16.3511 6.78044 16.28 6.70949C16.209 6.63855 16.1245 6.58259 16.0314 6.54493C15.9383 6.50726 15.8387 6.48867 15.7383 6.49023ZM10.25 6.50098C10.1506 6.49957 10.0519 6.51793 9.95972 6.55499C9.86749 6.59205 9.78355 6.64707 9.71277 6.71686C9.642 6.78664 9.58579 6.86979 9.54743 6.96149C9.50907 7.05318 9.48932 7.15158 9.48932 7.25098C9.48932 7.35037 9.50907 7.44877 9.54743 7.54047C9.58579 7.63216 9.642 7.71531 9.71277 7.7851C9.78355 7.85488 9.86749 7.9099 9.95972 7.94696C10.0519 7.98402 10.1506 8.00238 10.25 8.00098H12.5V8.50098C12.5 9.12722 12.2177 9.67632 11.7725 10.0439C11.6965 10.1067 11.6336 10.1837 11.5873 10.2707C11.5411 10.3578 11.5125 10.453 11.5031 10.5511C11.4937 10.6492 11.5037 10.7482 11.5326 10.8424C11.5615 10.9366 11.6086 11.0242 11.6713 11.1002C11.734 11.1762 11.8111 11.239 11.8981 11.2853C11.9851 11.3315 12.0804 11.3601 12.1785 11.3694C12.2766 11.3788 12.3756 11.3688 12.4698 11.3399C12.564 11.311 12.6516 11.2639 12.7275 11.2012C13.5043 10.5598 14 9.58273 14 8.50098V7.25098C14 7.05207 13.921 6.86132 13.7803 6.72067C13.6397 6.58002 13.4489 6.501 13.25 6.50098H10.25ZM9.25293 9.00098C9.10084 9.00033 8.95214 9.04594 8.82657 9.13175C8.70099 9.21756 8.60447 9.33952 8.5498 9.48145L6.0498 15.9814C5.97832 16.1671 5.98353 16.3736 6.0643 16.5555C6.14506 16.7374 6.29477 16.8797 6.48047 16.9512C6.66617 17.0227 6.87267 17.0174 7.05453 16.9367C7.23638 16.8559 7.37871 16.7062 7.4502 16.5205L8.03418 15.001H10.4658L11.0498 16.5205C11.0852 16.6125 11.1384 16.6965 11.2062 16.7679C11.2741 16.8394 11.3554 16.8967 11.4455 16.9367C11.5355 16.9767 11.6326 16.9985 11.7311 17.001C11.8296 17.0035 11.9276 16.9866 12.0195 16.9512C12.1115 16.9158 12.1956 16.8626 12.267 16.7947C12.3384 16.7268 12.3957 16.6455 12.4357 16.5555C12.4757 16.4655 12.4976 16.3684 12.5 16.2699C12.5025 16.1714 12.4856 16.0734 12.4502 15.9814L9.9502 9.48145C9.89589 9.34045 9.80026 9.21914 9.67585 9.13341C9.55143 9.04768 9.40402 9.00152 9.25293 9.00098ZM9.25 11.8408L9.88867 13.501H8.61133L9.25 11.8408Z" fill="#A3A3A3"/>
</svg>
