<svg width="24" height="24" viewBox="0 0 24 24" fill="none" xmlns="http://www.w3.org/2000/svg">
<path d="M9.15677 2.00164C8.93325 2.02028 8.7599 2.19373 8.73215 2.41574C8.70043 2.66946 8.89066 2.90745 9.14439 2.93916C12.9185 3.36732 12.9183 4.16027 12.9183 4.58843C12.9183 4.68357 12.8073 6.90359 2.37296 9.20296C2.11924 9.26639 1.96085 9.52005 2.00842 9.77377C2.05599 9.99578 2.24635 10.1544 2.46836 10.1544C2.50007 10.1544 2.53172 10.1545 2.56344 10.1386C7.06703 9.13959 10.2862 8.02949 12.1416 6.8243C13.648 5.84112 13.8698 5.00067 13.8698 4.60422C13.8698 3.1136 12.5695 2.38408 9.25527 2.0035C9.22157 1.99953 9.18871 1.99898 9.15677 2.00164ZM14.5521 2.00567C14.3325 1.99699 14.1297 2.14634 14.0603 2.36835C13.9968 2.62207 14.1553 2.87573 14.409 2.93916C20.1812 4.42979 20.7362 7.17323 20.9107 8.07712C21.2754 9.93247 20.1654 12.7708 13.4418 21.2229C13.2832 21.4291 13.3149 21.7305 13.5211 21.8891C13.6162 21.9526 13.7114 22 13.8224 22C13.9651 22 14.1079 21.9366 14.2031 21.8256C21.2122 13.0087 22.3062 10.1384 21.8621 7.90244C21.2754 5.03219 18.9285 3.11347 14.6469 2.01929C14.6152 2.01136 14.5835 2.0069 14.5521 2.00567ZM16.8834 5.96947C16.6638 5.95776 16.4606 6.09466 16.3912 6.31667C16.3437 6.52282 16.2485 6.74507 16.1534 6.96708C16.0424 7.20495 16.1376 7.49039 16.3754 7.60139C16.4389 7.64896 16.5024 7.66457 16.5817 7.66457C16.7561 7.66457 16.9305 7.56955 17.0097 7.39512C17.1366 7.10968 17.2477 6.84022 17.3111 6.57064C17.3745 6.31692 17.2319 6.06301 16.9782 5.98372C16.9464 5.97579 16.9148 5.97114 16.8834 5.96947ZM14.2563 9.57369C14.1354 9.56775 14.0126 9.60727 13.9175 9.69448C13.5052 10.0751 13.0294 10.4555 12.5061 10.8361C12.2999 10.9947 12.2524 11.2962 12.411 11.5023C12.5062 11.6292 12.6489 11.6925 12.7917 11.6925C12.8868 11.6925 12.9976 11.6608 13.0769 11.5974C13.6161 11.201 14.1078 10.7887 14.5518 10.3923C14.7421 10.2337 14.7578 9.93223 14.5834 9.72608C14.4962 9.63093 14.3772 9.57964 14.2563 9.57369ZM9.72232 12.7957C9.63062 12.7901 9.53494 12.8125 9.44574 12.866C8.92244 13.1673 8.38303 13.4685 7.84387 13.7698C7.606 13.8967 7.52684 14.1823 7.6537 14.4202C7.73299 14.5788 7.90736 14.6739 8.06594 14.6739C8.14523 14.6739 8.22458 14.6579 8.28801 14.6104C8.84303 14.3091 9.39817 14.0077 9.92148 13.6905C10.1435 13.5636 10.2227 13.2624 10.0958 13.0404C10.0166 12.8917 9.87517 12.805 9.72232 12.7957ZM4.72034 15.3283C4.65765 15.3298 4.59329 15.3439 4.52986 15.3717C4.27613 15.4827 4.03827 15.5776 3.81626 15.6727C3.57839 15.7679 3.45129 16.0534 3.56229 16.2912C3.64158 16.4815 3.81614 16.5926 4.00643 16.5926C4.06986 16.5926 4.13323 16.5769 4.1808 16.561C4.41867 16.4658 4.67258 16.3548 4.9263 16.2438C5.16416 16.1328 5.27517 15.8633 5.16416 15.6095C5.08091 15.4311 4.9084 15.3238 4.72034 15.3283Z" stroke="#A3A3A3"/>
</svg>
