<svg width="24" height="24" viewBox="0 0 24 24" fill="none" xmlns="http://www.w3.org/2000/svg">
<path d="M11.9892 2.00008C11.8066 2.00294 11.6326 2.07814 11.5055 2.20917C11.3783 2.3402 11.3083 2.51635 11.311 2.69893V3.87951C10.044 3.98783 8.79771 4.39283 7.68667 5.10047C7.60901 5.14848 7.54166 5.21144 7.48855 5.2857C7.43543 5.35997 7.3976 5.44405 7.37726 5.53305C7.35693 5.62206 7.35448 5.71423 7.37007 5.80419C7.38565 5.89415 7.41896 5.98012 7.46806 6.05709C7.51716 6.13407 7.58107 6.20052 7.65607 6.25259C7.73107 6.30465 7.81568 6.34129 7.90496 6.36038C7.99425 6.37946 8.08644 6.38061 8.17617 6.36376C8.26591 6.34691 8.3514 6.31239 8.42767 6.26221C9.31244 5.6987 10.302 5.36875 11.311 5.26464V7.29208C11.3097 7.38338 11.3265 7.47402 11.3606 7.55875C11.3946 7.64347 11.4452 7.72058 11.5093 7.7856C11.5734 7.85062 11.6498 7.90224 11.734 7.93748C11.8182 7.97272 11.9086 7.99087 11.9999 7.99087C12.0912 7.99087 12.1816 7.97272 12.2659 7.93748C12.3501 7.90224 12.4265 7.85062 12.4906 7.7856C12.5547 7.72058 12.6052 7.64347 12.6393 7.55875C12.6733 7.47402 12.6902 7.38338 12.6889 7.29208V5.26464C13.6816 5.36742 14.6562 5.68893 15.53 6.2362C15.6067 6.2855 15.6925 6.31908 15.7822 6.33501C15.872 6.35094 15.9641 6.34889 16.053 6.32898C16.142 6.30907 16.2262 6.2717 16.3006 6.21903C16.375 6.16636 16.4383 6.09944 16.4866 6.02216C16.535 5.94487 16.5676 5.85875 16.5824 5.76878C16.5973 5.67882 16.5941 5.5868 16.5732 5.49807C16.5522 5.40933 16.5138 5.32564 16.4602 5.25185C16.4067 5.17805 16.339 5.11562 16.2612 5.06817C15.1634 4.38064 13.9361 3.98724 12.6889 3.88041V2.69893C12.6902 2.60671 12.673 2.51517 12.6383 2.42972C12.6036 2.34428 12.5521 2.26667 12.4868 2.2015C12.4216 2.13633 12.3439 2.08492 12.2584 2.05033C12.1729 2.01573 12.0814 1.99864 11.9892 2.00008ZM5.77225 7.33425C5.64859 7.32951 5.52594 7.35817 5.41717 7.41721C5.30841 7.47625 5.21756 7.56349 5.15415 7.66976C4.48398 8.75603 4.10029 9.96642 3.9951 11.1963H2.69879C2.60749 11.195 2.51685 11.2118 2.43212 11.2459C2.3474 11.2799 2.27029 11.3305 2.20527 11.3946C2.14025 11.4587 2.08863 11.5351 2.05339 11.6193C2.01815 11.7035 2 11.7939 2 11.8852C2 11.9765 2.01815 12.0669 2.05339 12.1512C2.08863 12.2354 2.14025 12.3118 2.20527 12.3759C2.27029 12.44 2.3474 12.4905 2.43212 12.5246C2.51685 12.5586 2.60749 12.5755 2.69879 12.5742H3.9942C4.10161 13.8277 4.49948 15.0611 5.19362 16.1635C5.24104 16.2417 5.30354 16.3097 5.3775 16.3635C5.45145 16.4173 5.53537 16.4558 5.62436 16.4768C5.71335 16.4978 5.80564 16.5009 5.89585 16.4859C5.98605 16.4709 6.07237 16.4381 6.14977 16.3894C6.22717 16.3407 6.29409 16.2771 6.34665 16.2023C6.39921 16.1275 6.43635 16.0429 6.45591 15.9536C6.47546 15.8643 6.47704 15.7719 6.46055 15.682C6.44406 15.592 6.40983 15.5063 6.35986 15.4297C5.80717 14.552 5.48336 13.5725 5.38022 12.5742H7.29194C7.38324 12.5755 7.47388 12.5586 7.55861 12.5246C7.64333 12.4905 7.72044 12.44 7.78546 12.3759C7.85048 12.3118 7.9021 12.2354 7.93734 12.1512C7.97258 12.0669 7.99073 11.9765 7.99073 11.8852C7.99073 11.7939 7.97258 11.7035 7.93734 11.6193C7.9021 11.5351 7.85048 11.4587 7.78546 11.3946C7.72044 11.3305 7.64333 11.2799 7.55861 11.2459C7.47388 11.2118 7.38324 11.195 7.29194 11.1963H5.37932C5.48047 10.2177 5.79446 9.25692 6.32756 8.39283C6.39269 8.29052 6.42966 8.17283 6.43474 8.05166C6.43982 7.93048 6.41283 7.81011 6.35649 7.70271C6.30015 7.59531 6.21646 7.50469 6.11387 7.43999C6.01129 7.37529 5.89345 7.33882 5.77225 7.33425ZM18.3021 7.36923C18.1768 7.36441 18.0526 7.39386 17.9428 7.45441C17.833 7.51496 17.7418 7.60431 17.679 7.71285C17.6163 7.82139 17.5843 7.94499 17.5866 8.07034C17.5889 8.1957 17.6254 8.31805 17.692 8.42423C18.2135 9.28028 18.5206 10.2295 18.6205 11.1963H16.7079C16.6166 11.195 16.526 11.2118 16.4413 11.2459C16.3565 11.2799 16.2794 11.3305 16.2144 11.3946C16.1494 11.4587 16.0978 11.5351 16.0625 11.6193C16.0273 11.7035 16.0091 11.7939 16.0091 11.8852C16.0091 11.9765 16.0273 12.0669 16.0625 12.1512C16.0978 12.2354 16.1494 12.3118 16.2144 12.3759C16.2794 12.44 16.3565 12.4905 16.4413 12.5246C16.526 12.5586 16.6166 12.5755 16.7079 12.5742H18.6205C18.516 13.5863 18.1842 14.5796 17.6176 15.4665C17.5662 15.5427 17.5306 15.6284 17.5129 15.7186C17.4951 15.8087 17.4956 15.9015 17.5143 15.9915C17.5329 16.0815 17.5694 16.1669 17.6216 16.2425C17.6737 16.3182 17.7405 16.3827 17.8179 16.4322C17.8953 16.4817 17.9819 16.5152 18.0725 16.5307C18.163 16.5462 18.2558 16.5435 18.3453 16.5226C18.4348 16.5018 18.5192 16.4632 18.5936 16.4093C18.668 16.3553 18.7308 16.287 18.7784 16.2084C19.4898 15.0949 19.8978 13.8448 20.0066 12.5742H21.3011C21.3924 12.5755 21.483 12.5586 21.5677 12.5246C21.6525 12.4905 21.7296 12.44 21.7946 12.3759C21.8596 12.3118 21.9112 12.2354 21.9465 12.1512C21.9817 12.0669 21.9999 11.9765 21.9999 11.8852C21.9999 11.7939 21.9817 11.7035 21.9465 11.6193C21.9112 11.5351 21.8596 11.4587 21.7946 11.3946C21.7296 11.3305 21.6525 11.2799 21.5677 11.2459C21.483 11.2118 21.3924 11.195 21.3011 11.1963H20.0039C19.8998 9.98065 19.5247 8.78396 18.869 7.70744C18.8104 7.60812 18.7277 7.52511 18.6287 7.46602C18.5296 7.40693 18.4173 7.37365 18.3021 7.36923ZM11.9999 9.359C11.2153 9.359 10.5395 9.67806 10.107 10.1646C9.67457 10.6511 9.47369 11.2728 9.47369 11.8852C9.47369 12.4977 9.67457 13.1193 10.107 13.6059C10.5395 14.0924 11.2153 14.4115 11.9999 14.4115C12.7846 14.4115 13.4603 14.0924 13.8928 13.6059C14.3253 13.1193 14.5262 12.4977 14.5262 11.8852C14.5262 11.2728 14.3253 10.6511 13.8928 10.1646C13.4603 9.67806 12.7846 9.359 11.9999 9.359ZM11.9999 10.737C12.4401 10.737 12.683 10.8772 12.8629 11.0796C13.0429 11.2821 13.1482 11.579 13.1482 11.8852C13.1482 12.1915 13.0429 12.4884 12.8629 12.6908C12.683 12.8933 12.4401 13.0335 11.9999 13.0335C11.5598 13.0335 11.3169 12.8933 11.1369 12.6908C10.957 12.4884 10.8516 12.1915 10.8516 11.8852C10.8516 11.579 10.957 11.2821 11.1369 11.0796C11.3169 10.8772 11.5598 10.737 11.9999 10.737ZM11.9892 16.0092C11.8066 16.0121 11.6326 16.0873 11.5055 16.2183C11.3783 16.3493 11.3083 16.5255 11.311 16.7081V18.5058C10.3318 18.4045 9.37032 18.0905 8.50572 17.5567C8.42867 17.5092 8.34301 17.4772 8.25363 17.4628C8.16425 17.4484 8.0729 17.4517 7.9848 17.4725C7.89669 17.4934 7.81356 17.5314 7.74015 17.5844C7.66673 17.6374 7.60448 17.7043 7.55694 17.7814C7.5094 17.8584 7.4775 17.9441 7.46307 18.0335C7.44864 18.1229 7.45196 18.2142 7.47283 18.3023C7.49371 18.3904 7.53174 18.4735 7.58475 18.5469C7.63775 18.6204 7.7047 18.6826 7.78176 18.7301C8.86863 19.4011 10.0802 19.7849 11.311 19.8901V21.3012C11.3097 21.3925 11.3265 21.4832 11.3606 21.5679C11.3946 21.6526 11.4452 21.7297 11.5093 21.7947C11.5734 21.8597 11.6498 21.9114 11.734 21.9466C11.8182 21.9819 11.9086 22 11.9999 22C12.0912 22 12.1816 21.9819 12.2659 21.9466C12.3501 21.9114 12.4265 21.8597 12.4906 21.7947C12.5547 21.7297 12.6052 21.6526 12.6393 21.5679C12.6733 21.4832 12.6902 21.3925 12.6889 21.3012V19.8919C13.9656 19.7824 15.2217 19.3708 16.3392 18.653C16.467 18.5734 16.5652 18.4541 16.6189 18.3134C16.6725 18.1728 16.6785 18.0184 16.6361 17.8739C16.5937 17.7295 16.5051 17.6029 16.3839 17.5135C16.2628 17.4241 16.1157 17.3769 15.9651 17.3791C15.8332 17.3811 15.7046 17.421 15.5946 17.4939C14.7042 18.0659 13.7062 18.4008 12.6889 18.5058V16.7081C12.6902 16.6158 12.673 16.5243 12.6383 16.4389C12.6036 16.3534 12.5521 16.2758 12.4868 16.2106C12.4216 16.1455 12.3439 16.0941 12.2584 16.0595C12.1729 16.0249 12.0814 16.0078 11.9892 16.0092Z" fill="#A3A3A3"/>
</svg>
