<svg xmlns="http://www.w3.org/2000/svg" x="0px" y="0px" width="100" height="100" viewBox="0 0 48 48">
<path d="M 37.326172 5.0898438 C 35.658709 5.1314336 34.323109 6.3507344 33.396484 7.1933594 C 33.384484 7.2033594 33.373328 7.2136563 33.361328 7.2226562 C 32.771328 7.2936562 32.178672 7.3995312 31.513672 7.5195312 C 29.757672 7.8335313 27.571359 8.2246094 23.943359 8.2246094 C 20.261359 8.2246094 15.060687 7.4819062 13.554688 7.2539062 C 12.364688 6.2099062 10.461219 4.6338281 8.1992188 5.2988281 C 6.1832187 5.8888281 4.5764687 7.5916719 4.1054688 9.6386719 C 3.7134688 11.338672 4.2314375 13.288328 5.5234375 14.986328 C 6.3584375 16.083328 7.4211094 16.944797 8.5371094 17.466797 C 6.9491094 20.480797 3.9433594 26.581922 3.9433594 29.544922 C 3.9433594 34.029922 9.2008125 36.309656 10.632812 36.847656 C 11.904813 38.052656 17.61425 43.099609 24.03125 43.099609 C 31.64825 43.099609 35.944062 37.937047 37.289062 35.998047 C 38.494062 35.876047 40.667469 35.437672 42.230469 33.888672 C 43.365469 32.762672 43.941406 31.301922 43.941406 29.544922 C 43.942406 26.464922 40.546031 20.192609 38.832031 17.224609 C 41.201031 15.853609 43.260766 12.895359 42.884766 10.193359 L 42.884766 10.191406 C 42.536766 7.6884062 40.552547 5.6144375 38.060547 5.1484375 C 37.809047 5.1018125 37.564381 5.0839023 37.326172 5.0898438 z M 17.443359 19.044922 C 18.271359 19.044922 18.943359 19.716922 18.943359 20.544922 C 18.943359 21.372922 18.271359 22.044922 17.443359 22.044922 C 16.615359 22.044922 15.943359 21.372922 15.943359 20.544922 C 15.943359 19.716922 16.615359 19.044922 17.443359 19.044922 z M 30.443359 19.044922 C 31.271359 19.044922 31.943359 19.716922 31.943359 20.544922 C 31.943359 21.372922 31.271359 22.044922 30.443359 22.044922 C 29.615359 22.044922 28.943359 21.372922 28.943359 20.544922 C 28.943359 19.716922 29.615359 19.044922 30.443359 19.044922 z M 24 24 C 27.365 24 30 26.196 30 29 C 30 29.282 29.965062 29.555219 29.914062 29.824219 C 32.778062 31.841219 33.965156 34.8745 34.035156 35.0625 C 34.056156 35.1195 34.093141 35.161844 34.119141 35.214844 C 32.578141 37.073844 29.27125 40.099609 24.03125 40.099609 C 19.70625 40.099609 15.537234 37.088516 13.615234 35.478516 C 13.676234 35.401516 13.732297 35.318562 13.779297 35.226562 C 13.803297 35.180563 15.331016 32.274828 18.166016 30.173828 C 18.061016 29.797828 18 29.406 18 29 C 18 26.196 20.635 24 24 24 z M 24 26 C 21.791 26 20 27.343 20 29 C 20 30.258 21.035 31.332344 22.5 31.777344 L 22.5 34 L 20.5 34 C 19.672 34 19 34.672 19 35.5 C 19 36.328 19.672 37 20.5 37 L 27.5 37 C 28.328 37 29 36.328 29 35.5 C 29 34.672 28.328 34 27.5 34 L 25.5 34 L 25.5 31.777344 C 26.965 31.332344 28 30.258 28 29 C 28 27.343 26.209 26 24 26 z"></path>
</svg>
