<svg xmlns="http://www.w3.org/2000/svg" viewBox="0 0 646.99 386.54">
  <path d="m222.83,0c-25.94.16-50.47,3.66-73.13,11.44-38.44,13.31-71.88,38.42-97.97,81.55C25.89,135.33,7.31,195.8,0,278.61c41.14,11.88,76.73,39.53,104.7,74.69,27.66,9.69,58.12,16.72,87.97,21.88,42.19,7.34,83.44,10.62,114.53,11.25,15.47.31,28.44,0,37.5-.62,4.53-.47,8.13-.94,10-1.41,12.19-2.81,25-16.87,15.78-25.31-10.62-8.28-39.06-17.5-62.03-25.47l-16.41-5.63-60.62-18.91,19.53-17.19c17.34-15.16,31.41-32.97,37.97-48.28,6.41-15.47,6.25-25.94-1.72-35.47l22.19-18.75c16.09,18.75,15.47,44.22,6.41,65.47-6.41,14.53-16.25,28.44-27.81,41.25l22.5,7.03c14.06-11.41,30.31-19.53,45.63-23.75,8.91-2.66,17.66-4.06,26.09-3.75,8.44.31,17.34,2.34,24.06,9.69l1.56,1.41.78,1.87c8.28,16.09,21.41,40.31,34.38,59.53,6.72,9.84,13.44,18.28,18.91,23.44,17.19,13.12,68.59,17.97,82.03,4.84,1.09-1.56,2.5-5.31,2.03-10.31-1.25-10.16-8.28-22.03-22.03-25.62-28.91-4.37-49.38-18.91-59.06-37.66-9.84-19.06-9.22-40.62-1.88-58.75,4.84-11.88,16.09-31.56,31.72-50.62,15.31-19.06,33.44-38.44,58.28-40.62,17.81-1.41,40.16-7.81,58.28-17.19-13.44-16.56-18.59-34.22-13.59-50.31,4.69-14.37,15.31-24.69,28.75-32.38-10.47-13.7-25-27.87-43.44-36.7-26.09-12.53-60.62-16.37-108.91,7.56,7.19,5.33,13.59,11.95,19.37,19.44l-22.97,17.87c-7.97-10.47-18.28-17.88-25.31-20.2-7.34-2.33-9.22-2.25-13.44,3.25-4.37,5.98-4.84,11.45-2.5,19.38,2.66,7.88,9.06,17.56,18.75,26l-19.37,21.72c-12.5-11.09-22.5-24.22-27.03-39.06-3.28-10.44-3.44-22.03.16-32.77C342.83,16.44,282.67.77,227.98.03h-5.16v-.03Zm310.16,52.53c13.75.33,28.75,4.72,44.37,10.53,0,0-23.59,28.2-37.34,24.45-11.09-3.12-20.31-33.84-20.31-33.84,4.22-.89,8.75-1.23,13.28-1.14h0Zm109.22,25.14c-9.84,5.62-15.31,11.72-16.72,16.41-1.88,5.62-.94,12.81,9.69,24.84,4.84-4.69,8.44-9.53,10.16-14.22,3.12-11.56,1.72-18.59-3.12-27.03Zm-17.19,83.75c-10,5.31-20.78,9.69-31.41,13.12l-9.38,51.41,24.06-13.12,16.72-51.41Z"/>
</svg>
