<svg xmlns="http://www.w3.org/2000/svg" x="0px" y="0px" width="100" height="100" viewBox="0 0 48 48">
<path d="M 34.496094 1.9980469 C 33.803285 1.9989219 33.171047 2.4937031 33.029297 3.2050781 C 33.020297 3.2430781 32.238 7 29.5 7 C 29.399 7 29.300078 7.0102969 29.205078 7.0292969 C 27.645078 6.4392969 25.943422 6.078125 24.107422 6.078125 C 22.262422 6.078125 20.562812 6.4110312 19.007812 6.9570312 C 16.694812 6.5520312 16.000703 3.3452187 15.970703 3.1992188 C 15.805703 2.3892187 15.010078 1.8702969 14.205078 2.0292969 C 13.392078 2.1912969 12.866297 2.9819219 13.029297 3.7949219 C 13.295297 5.1259219 14.130937 7.1884062 15.710938 8.5664062 C 14.790938 9.1574062 13.949219 9.8202031 13.199219 10.533203 C 11.730219 8.6912031 9.0827969 6.7311094 4.3417969 6.1621094 C 3.1257969 6.0191094 1.9543594 6.50575 1.1933594 7.46875 C 0.43335937 8.43275 0.22934375 9.6918906 0.65234375 10.837891 C 1.4663438 13.040891 3.6340781 16.484641 9.2050781 16.556641 C 9.1550781 16.705641 9.0976406 16.856953 9.0566406 17.001953 C 7.0466406 24.127953 14.636687 35.926969 16.054688 38.042969 L 16.400391 40.884766 C 16.563391 43.796766 18.975578 46.078125 21.892578 46.078125 L 26.326172 46.078125 C 29.244172 46.078125 31.655406 43.796813 31.816406 40.882812 L 31.974609 37.996094 C 33.465609 35.766094 40.942359 24.084891 38.943359 17.087891 C 38.894359 16.915891 38.825672 16.734641 38.763672 16.556641 C 44.349672 16.498641 46.528656 13.057891 47.347656 10.837891 C 47.770656 9.6918906 47.566641 8.43275 46.806641 7.46875 C 46.045641 6.50575 44.876203 6.0221094 43.658203 6.1621094 C 38.892203 6.7331094 36.237719 8.7059375 34.761719 10.585938 C 34.160719 10.007938 33.504828 9.4590781 32.798828 8.9550781 C 34.700828 7.6060781 35.680656 5.2579219 35.972656 3.7949219 C 36.135656 2.9819219 35.607922 2.1912969 34.794922 2.0292969 C 34.694672 2.0084219 34.595066 1.9979219 34.496094 1.9980469 z M 17.546875 10.914062 C 18.457875 13.155062 20.790469 20.84225 16.480469 33.03125 C 13.881469 28.48125 10.827359 21.774406 11.943359 17.816406 C 12.579359 15.560406 14.543875 12.730062 17.546875 10.914062 z M 30.488281 10.964844 C 33.653281 12.981844 35.548594 16.129109 36.058594 17.912109 C 37.166594 21.791109 34.140828 28.438469 31.548828 32.980469 C 27.327828 20.993469 29.574281 13.285844 30.488281 10.964844 z M 15.5 18 A 1.5 1.5 0 0 0 15.5 21 A 1.5 1.5 0 0 0 15.5 18 z M 32.5 18 A 1.5 1.5 0 0 0 32.5 21 A 1.5 1.5 0 0 0 32.5 18 z M 24.035156 36.785156 C 25.134906 36.779906 26.234203 36.964344 27.283203 37.339844 L 28.972656 37.945312 L 28.820312 40.71875 C 28.747312 42.04275 27.650219 43.078125 26.324219 43.078125 L 21.892578 43.078125 C 20.566578 43.078125 19.468719 42.042094 19.386719 40.621094 L 19.070312 38.001953 C 19.089312 37.995953 19.109906 37.993328 19.128906 37.986328 L 20.789062 37.371094 C 21.835062 36.984594 22.935406 36.790406 24.035156 36.785156 z"></path>
</svg>
