<svg xmlns="http://www.w3.org/2000/svg" x="0px" y="0px" width="100" height="100" viewBox="0 0 48 48">
<path d="M44.931,14.063c-7.755-2.329-11.869,0.889-13.667,3.09c-0.724-0.922-1.583-1.771-2.542-2.453	c3.865-0.638,12.084-2.463,15.594-6.823c1.336-1.66,1.899-3.525,1.676-5.544c-0.092-0.823-0.829-1.413-1.657-1.325	c-0.823,0.092-1.416,0.834-1.325,1.657c0.135,1.211-0.202,2.3-1.029,3.329c-1.542,1.917-4.547,3.316-7.596,4.286	c1.113-3.059-0.468-6.302-0.542-6.452c-0.37-0.738-1.263-1.036-2.006-0.671c-0.74,0.366-1.044,1.266-0.681,2.007	c0.014,0.026,1.27,2.638,0.22,4.523c-0.704,1.266-2.376,2.043-4.965,2.312l-4.798,0.003c-2.711-0.278-4.53-1.121-5.402-2.508	c-1.204-1.916-0.317-4.434-0.303-4.476c0.286-0.773-0.107-1.634-0.881-1.924c-0.774-0.294-1.64,0.103-1.931,0.878	c-0.053,0.14-1.133,3.113,0.02,6.012C7.131,7.169,6.029,2.478,5.969,2.197C5.803,1.391,5.007,0.872,4.206,1.029	c-0.813,0.162-1.34,0.952-1.177,1.765c0.087,0.434,2.218,10.211,16.437,12.005c-0.952,0.699-1.803,1.561-2.513,2.489	c-2.285-2.409-6.734-5.362-13.86-3.224c-0.634,0.189-1.067,0.771-1.069,1.433c0,0.168,0.024,4.151,3.089,6.958	c1.845,1.688,4.342,2.559,7.43,2.613c-1.165,3.35-0.138,7.098,2.667,9.377c1.147,0.933,1.959,3.333,2.054,5.021l0.188,3.387	c0.133,2.384,2.106,4.251,4.493,4.251h4.432c2.388,0,4.361-1.867,4.493-4.251l0.188-3.387c0.094-1.688,0.905-4.089,2.054-5.021	c2.799-2.274,3.827-6.013,2.659-9.384c0.122,0.003,0.253,0.018,0.373,0.018c3.226-0.001,5.733-0.894,7.47-2.664	c2.81-2.867,2.396-6.909,2.378-7.08C45.925,14.736,45.507,14.236,44.931,14.063z M31,26.5c0,0.828-0.672,1.5-1.5,1.5	c-0.828,0-1.5-0.672-1.5-1.5s0.672-1.5,1.5-1.5C30.328,25,31,25.672,31,26.5z M24,38.428c1.657,0,3,1.007,3,2.25	c0,1.243-1.343,2.25-3,2.25s-3-1.007-3-2.25C21,39.435,22.343,38.428,24,38.428z M19.5,25c0.828,0,1.5,0.672,1.5,1.5	S20.328,28,19.5,28c-0.828,0-1.5-0.672-1.5-1.5S18.671,25,19.5,25z M5.17,16.624c5.589-1.198,8.762,1.573,10.147,3.302L14.13,22.02	c-3.059,0.239-5.41-0.346-6.967-1.757C5.9,19.12,5.383,17.63,5.17,16.624z M41.471,20.314c-1.383,1.409-3.685,1.98-6.835,1.691	c-0.149-0.014-0.293,0.003-0.434,0.032l-1.219-2.149c0.526-0.966,3.118-4.864,10.015-3.24	C42.918,17.634,42.599,19.163,41.471,20.314z"></path>
</svg>
