<svg xmlns="http://www.w3.org/2000/svg" x="0px" y="0px" width="100" height="100" viewBox="0 0 48 48">
<path d="M41.386,26.692c-0.377-2.265-1.133-4.422-2.206-6.399c3.404-2.729,2.658-11.949,2.31-14.965	c-0.049-0.422-0.273-0.803-0.619-1.05c-0.347-0.246-0.778-0.335-1.194-0.243C36.1,4.823,28.266,6.923,26.771,10.35	c-1.671-0.361-3.406-0.41-5.106-0.151C20.01,6.86,12.347,4.812,8.823,4.035C8.417,3.947,7.995,4.028,7.652,4.263	c-0.342,0.234-0.572,0.6-0.635,1.009C6.547,8.328,5.428,17.738,8.922,20.374c-0.729,1.448-1.311,2.974-1.679,4.569l-1.205,5.221	c-0.17,0.738,0.237,1.487,0.949,1.747l6.115,2.224c1.775,0.646,3.02,2.211,3.247,4.086C16.817,42.085,20.106,45,24,45	s7.183-2.915,7.65-6.779c0.228-1.876,1.472-3.441,3.247-4.087l6.115-2.224c0.68-0.247,1.086-0.944,0.967-1.657L41.386,26.692z M26.449,36.16L25,36.884c0,0.552-0.448,1-1,1s-1-0.448-1-1l-1.449-0.724C21.213,35.991,21,35.646,21,35.268	c0-0.681,0.667-1.161,1.313-0.946c1.095,0.365,2.279,0.365,3.375,0C26.333,34.106,27,34.587,27,35.268	C27,35.646,26.787,35.991,26.449,36.16z M30.5,24c0.828,0,1.5,0.672,1.5,1.5S31.328,27,30.5,27c-0.828,0-1.5-0.672-1.5-1.5	S29.671,24,30.5,24z M17.5,27c-0.828,0-1.5-0.672-1.5-1.5s0.672-1.5,1.5-1.5c0.828,0,1.5,0.672,1.5,1.5S18.328,27,17.5,27z M38.671,7.36c0.366,4.847-0.108,9.225-1.117,10.392c-1.495-1.991-3.354-3.715-5.51-5.065l-0.93-0.582	c-0.489-0.306-0.998-0.574-1.518-0.812C30.238,10.302,33.945,8.58,38.671,7.36z M9.767,7.345c4.339,1.113,7.825,2.652,8.892,3.663	c-0.731,0.288-1.446,0.632-2.129,1.049c-2.401,1.467-4.453,3.425-6.057,5.701C9.526,16.595,9.219,12.14,9.767,7.345z"></path>
</svg>
