<svg xmlns="http://www.w3.org/2000/svg" x="0px" y="0px" width="100" height="100" viewBox="0 0 48 48">
<path d="M41.227,24.738c-2.75-1.031-4.86-3.221-5.789-6.007l-0.053-0.158c-0.945-2.834-2.834-5.308-5.318-6.964L28,10.232V4.5	C28,4.224,27.776,4,27.5,4c-4.084,0-6.855,3.074-7.933,4.518l-1.62-3.241c-0.106-0.214-0.351-0.32-0.579-0.259	C7.297,7.765,3,19.974,3,43.5C3,43.776,3.224,44,3.5,44h20c0.194,0,0.37-0.112,0.453-0.288c0.082-0.176,0.056-0.383-0.069-0.532	c-4.091-4.91-4.047-7.332-3.928-11.134c0.017-0.529,0.034-1.103,0.04-1.771C22.816,31.539,33.196,36,39.203,36	c0.039,0,0.077-0.001,0.115-0.001C42.451,35.97,45,33.36,45,30.184C45,27.773,43.483,25.585,41.227,24.738z M28.5,21	c-0.828,0-1.5-0.672-1.5-1.5s0.672-1.5,1.5-1.5s1.5,0.672,1.5,1.5S29.328,21,28.5,21z"></path>
</svg>
