<svg xmlns="http://www.w3.org/2000/svg" x="0px" y="0px" width="100" height="100" viewBox="0 0 48 48">
<path d="M39.74,21.462C43.1,20.388,46,17.764,46,14.5c0-4.293-5.016-7.5-9.5-7.5c-2.172,0-4.15,0.729-5.654,1.916 C26.375,5.89,16.71,2.744,11.359,3.322C9.798,3.49,8.563,4.639,8.287,6.181C8.01,7.728,8.771,9.239,10.181,9.941 c3.63,1.808,9.608,3.483,17.752,4.977C27.751,15.541,27.181,16,26.5,16h-6C11.402,16,4,23.402,4,32.5 c0,0.227,0.018,0.45,0.031,0.674C2.853,33.578,2,34.684,2,36c0,1.657,1.343,3,3,3c0.326,0,0.633-0.065,0.927-0.161 c1.783,2.677,4.651,4.572,7.978,5.037C14.088,43.955,14.289,44,14.5,44h1h14.989h1.237v-3.118c0-1.263-2.438-2.69-5.113-2.996 c-0.652-0.073-2.051-0.036-2.976-0.012c-0.38,0.01-0.699,0.019-0.9,0.019c-0.002,0-0.003-0.001-0.005-0.001 s-0.003,0.001-0.005,0.001c-0.553,0-1-0.447-1-1c0-3.859-3.141-7-7-7h-1c-0.553,0-1-0.447-1-1s0.447-1,1-1h1 c4.618,0,8.429,3.496,8.938,7.98c1.031-0.028,2.403-0.063,3.175,0.027c3.339,0.38,6.887,2.256,6.887,4.982V44H38.5 c1.93,0,3.5-1.57,3.5-3.5c0-1.527-0.643-2.998-1.839-4.101l-3.335-2.703c-0.302-0.245-0.553-0.533-0.778-0.837l-0.779-1.751 c-0.033-0.159-0.079-0.314-0.095-0.479c-0.118-1.188,0.231-2.343,0.985-3.253C38.258,24.842,39.342,22.457,39.74,21.462z M37.5,12 c0.828,0,1.5,0.672,1.5,1.5S38.328,15,37.5,15S36,14.328,36,13.5S36.672,12,37.5,12z"></path>
</svg>
