<svg xmlns="http://www.w3.org/2000/svg" x="0px" y="0px" width="100" height="100" viewBox="0 0 48 48">
<path d="M 24 4.5 C 20.29 4.5 17.670719 6.1199219 15.761719 8.2949219 C 13.663719 6.0859219 10.298 5 5.5 5 C 4.672 5 4 5.672 4 6.5 L 4 6.7285156 C 3.996 9.8965156 3.989125 16.488969 9.078125 20.042969 C 9.112125 20.065969 9.1505469 20.07375 9.1855469 20.09375 C 7.3525469 23.09275 5.5 26.193563 5.5 29.476562 C 5.5 38.181562 13.626 45 24 45 C 34.374 45 42.5 38.181562 42.5 29.476562 C 42.5 26.375563 40.881969 23.795453 39.167969 21.064453 C 38.981969 20.768453 38.795375 20.464063 38.609375 20.164062 C 38.693375 20.126062 38.780375 20.097969 38.859375 20.042969 C 43.948375 16.487969 43.9405 9.8965156 43.9375 6.7285156 L 43.9375 6.5 C 43.9375 5.672 43.2655 5 42.4375 5 C 37.7095 5 34.366672 6.0484063 32.263672 8.1914062 C 30.053672 5.7824063 27.25 4.5 24 4.5 z M 19.5 16 C 20.328 16 21 16.672 21 17.5 C 21 18.328 20.328 19 19.5 19 C 18.672 19 18 18.328 18 17.5 C 18 16.672 18.672 16 19.5 16 z M 28.5 16 C 29.328 16 30 16.672 30 17.5 C 30 18.328 29.328 19 28.5 19 C 27.672 19 27 18.328 27 17.5 C 27 16.672 27.672 16 28.5 16 z M 36.603516 16.496094 L 37.220703 17.521484 C 37.192703 17.541484 37.168625 17.562031 37.140625 17.582031 C 37.139625 17.583031 37.139672 17.584937 37.138672 17.585938 C 36.954672 17.226938 36.767516 16.867094 36.603516 16.496094 z M 10.8125 17.357422 C 10.7835 17.412422 10.74975 17.467484 10.71875 17.521484 C 10.71875 17.521484 10.716797 17.519531 10.716797 17.519531 L 10.8125 17.357422 z M 24.054688 23.185547 C 29.024687 23.220547 33.029 26.636406 33 30.816406 C 32.971 34.996406 28.917266 38.357266 23.947266 38.322266 C 18.977266 38.287266 14.972953 34.871406 15.001953 30.691406 C 15.030953 26.511406 19.084687 23.150547 24.054688 23.185547 z M 20 29 A 2 2 0 0 0 20 33 A 2 2 0 0 0 20 29 z M 28 29 A 2 2 0 0 0 28 33 A 2 2 0 0 0 28 29 z"></path>
</svg>
