<svg width="25" height="25" viewBox="0 0 25 25" fill="none" xmlns="http://www.w3.org/2000/svg">
<path d="M21.7639 2.50021C21.6731 2.50258 21.5838 2.52395 21.5017 2.56296C21.4196 2.60196 21.3466 2.65773 21.2874 2.72667C21.2282 2.7956 21.1841 2.87618 21.158 2.9632C21.1318 3.05022 21.1242 3.14176 21.1356 3.23191C21.2188 3.98152 20.9304 4.48595 20.3302 4.98325C19.73 5.48054 18.8112 5.88419 17.8565 6.16802C17.6604 6.2263 17.5034 6.23248 17.3077 6.2815C17.4324 6.00667 17.5185 5.7254 17.5499 5.45834C17.6873 4.29003 17.1603 3.30305 17.1603 3.30305C17.1234 3.22459 17.0712 3.1543 17.0067 3.09631C16.9423 3.03832 16.8669 2.99381 16.785 2.96538C16.7031 2.93695 16.6163 2.92519 16.5298 2.93078C16.4433 2.93637 16.3587 2.9592 16.2812 2.99793C16.2036 3.03666 16.1345 3.0905 16.0781 3.1563C16.0216 3.2221 15.9789 3.29852 15.9524 3.38108C15.9259 3.46363 15.9161 3.55065 15.9238 3.63702C15.9314 3.72339 15.9562 3.80736 15.9967 3.884C15.9967 3.884 16.3369 4.63142 16.2576 5.3059C16.2179 5.64315 16.1042 5.93773 15.7875 6.21121C15.473 6.48285 14.9105 6.74455 13.9286 6.84552H11.8572C10.8736 6.74448 10.2743 6.48232 9.90938 6.19343C9.54204 5.90262 9.38016 5.57891 9.29879 5.23307C9.13604 4.54139 9.38263 3.82218 9.38263 3.82218C9.41382 3.74197 9.42879 3.65637 9.42667 3.57034C9.42454 3.4843 9.40537 3.39954 9.37025 3.32097C9.33513 3.2424 9.28477 3.17158 9.22209 3.11262C9.1594 3.05365 9.08564 3.00771 9.00507 2.97745C8.92451 2.9472 8.83874 2.93323 8.75273 2.93636C8.66673 2.93949 8.5822 2.95966 8.50405 2.9957C8.42589 3.03173 8.35567 3.08292 8.29744 3.14629C8.23921 3.20966 8.19413 3.28395 8.16482 3.36487C8.16482 3.36487 7.76101 4.38006 8.03186 5.53117C8.07328 5.70717 8.17071 5.88752 8.25036 6.06724C7.29117 5.66723 6.6141 5.17539 6.14418 4.70547C5.22734 3.78863 5.07288 3.0185 5.07288 3.0185C5.03537 2.85004 4.93248 2.70339 4.78685 2.6108C4.64121 2.5182 4.46475 2.48726 4.2963 2.52477C4.12785 2.56228 3.98119 2.66517 3.8886 2.81081C3.79601 2.95644 3.76506 3.1329 3.80257 3.30135C3.80257 3.30135 4.08172 4.48242 5.22447 5.62518C6.19342 6.59413 7.79942 7.56518 10.3244 7.9761C9.96813 8.28795 9.65314 8.64317 9.38432 9.02284C9.20414 8.76346 8.96521 8.48327 8.64415 8.23101C7.95244 7.68752 6.8897 7.29291 5.42603 7.42224C4.93814 7.46535 4.40617 7.56636 3.82798 7.73982C3.70568 7.77645 3.59687 7.84826 3.5151 7.94629C3.43333 8.04433 3.38222 8.16426 3.36813 8.29114C3.36813 8.29114 3.22424 9.43975 3.81951 10.5641C4.33757 11.5427 5.49396 12.4442 7.47123 12.5086C6.98548 14.0921 7.49345 15.8461 8.8076 16.914C9.0901 17.1436 9.50662 18.2055 9.53845 18.7788L9.6206 20.2473C9.6206 20.2476 9.6206 20.2479 9.6206 20.2482C9.69058 21.5055 10.742 22.5 12.0012 22.5H13.9236C15.1829 22.5 16.2347 21.5047 16.3041 20.2473L16.3863 18.7788C16.4181 18.2055 16.8344 17.143 17.1163 16.914C18.4329 15.8444 18.9409 14.0864 18.451 12.501C20.3504 12.4026 21.4706 11.5214 21.9773 10.5641C22.5726 9.43975 22.4279 8.29114 22.4279 8.29114C22.4139 8.16436 22.3629 8.04451 22.2813 7.94648C22.1996 7.84846 22.091 7.77659 21.9689 7.73982C21.3907 7.56636 20.8579 7.46535 20.37 7.42224C18.9063 7.29291 17.8444 7.68752 17.1527 8.23101C16.8672 8.45537 16.6496 8.70118 16.4769 8.93561C16.222 8.58812 15.9277 8.26401 15.5987 7.9761C16.3486 7.8682 17.281 7.69599 18.2274 7.41462C19.2781 7.10226 20.3376 6.6658 21.1601 5.98425C21.9827 5.3027 22.5614 4.28952 22.4279 3.08794C22.4121 2.92417 22.3348 2.77247 22.2116 2.66341C22.0884 2.55435 21.9284 2.49604 21.7639 2.50021ZM12.9624 8.19121C14.0566 8.19121 15.2748 9.25359 15.8629 10.3922C15.867 10.3997 15.8712 10.407 15.8756 10.4143L17.0697 12.5204C17.6204 13.6948 17.3035 15.0852 16.2965 15.9037C15.4251 16.6113 15.1377 17.7964 15.0872 18.7068L15.0059 20.1753C15.0059 20.1756 15.0059 20.1759 15.0059 20.1762C14.9738 20.7564 14.5053 21.1992 13.9236 21.1992H12.0012C11.4193 21.1992 10.9512 20.7565 10.9189 20.1753L10.8376 18.7068C10.787 17.7964 10.4991 16.6124 9.62822 15.9045C8.62075 15.0861 8.30414 13.6956 8.85502 12.5204L10.0491 10.4143C10.0535 10.407 10.0577 10.3997 10.0618 10.3922C10.6494 9.2535 11.868 8.19121 12.9624 8.19121ZM6.2729 8.71627C7.00749 8.75538 7.50107 8.98736 7.84047 9.25403C8.43579 9.72178 8.59249 10.2762 8.59249 10.2762C8.59675 10.2913 8.60155 10.3063 8.60689 10.3211L8.11316 11.1925C6.04987 11.3366 5.3379 10.6534 4.96872 9.95609C4.7638 9.56902 4.69563 9.1854 4.67146 8.88818C5.30483 8.73896 5.83215 8.6928 6.2729 8.71627ZM19.5231 8.71627C19.9639 8.6928 20.4912 8.73896 21.1245 8.88818C21.1004 9.1854 21.0322 9.56902 20.8273 9.95609C20.4663 10.638 19.7738 11.3035 17.815 11.1985L17.2382 10.1814C17.3105 10.0031 17.5097 9.60435 17.9555 9.25403C18.2949 8.98736 18.7885 8.75538 19.5231 8.71627ZM10.9417 12.4823C10.7692 12.4823 10.6038 12.5508 10.4818 12.6728C10.3598 12.7948 10.2913 12.9602 10.2913 13.1327C10.2913 13.3052 10.3598 13.4706 10.4818 13.5926C10.6038 13.7146 10.7692 13.7831 10.9417 13.7831C11.1142 13.7831 11.2797 13.7146 11.4016 13.5926C11.5236 13.4706 11.5921 13.3052 11.5921 13.1327C11.5921 12.9602 11.5236 12.7948 11.4016 12.6728C11.2797 12.5508 11.1142 12.4823 10.9417 12.4823ZM15.2777 12.4823C15.1052 12.4823 14.9398 12.5508 14.8178 12.6728C14.6958 12.7948 14.6273 12.9602 14.6273 13.1327C14.6273 13.3052 14.6958 13.4706 14.8178 13.5926C14.9398 13.7146 15.1052 13.7831 15.2777 13.7831C15.4502 13.7831 15.6156 13.7146 15.7376 13.5926C15.8596 13.4706 15.9281 13.3052 15.9281 13.1327C15.9281 12.9602 15.8596 12.7948 15.7376 12.6728C15.6156 12.5508 15.4502 12.4823 15.2777 12.4823ZM12.8929 18.3046C12.5479 18.3046 12.2171 18.4074 11.9731 18.5903C11.7292 18.7733 11.5921 19.0214 11.5921 19.2802C11.5921 19.5389 11.7292 19.7871 11.9731 19.97C12.2171 20.153 12.5479 20.2558 12.8929 20.2558C13.2379 20.2558 13.5688 20.153 13.8127 19.97C14.0567 19.7871 14.1937 19.5389 14.1937 19.2802C14.1937 19.0214 14.0567 18.7733 13.8127 18.5903C13.5688 18.4074 13.2379 18.3046 12.8929 18.3046Z" fill="#57A926"/>
</svg>
