<svg width="25" height="25" viewBox="0 0 25 25" fill="none" xmlns="http://www.w3.org/2000/svg">
<path d="M3.49802 15.9643L4.19438 15.7429L3.49802 15.9643ZM2.43936 9.95481L3.14325 10.151L2.43936 9.95481ZM6.86007 5.3893L6.42445 4.80263H6.42445L6.86007 5.3893ZM2.54736 9.61512L3.23529 9.86146L2.54736 9.61512ZM6.38053 21.672L5.96687 22.2743H5.96687L6.38053 21.672ZM6.09779 21.462L5.64083 22.0322L6.09779 21.462ZM21.102 15.9643L20.4056 15.7429L21.102 15.9643ZM18.5022 21.462L18.9591 22.0322L18.5022 21.462ZM18.2194 21.672L18.6331 22.2743L18.2194 21.672ZM17.7399 5.3893L18.1755 4.80263L17.7399 5.3893ZM22.0526 9.61512L21.3647 9.86146L22.0526 9.61512ZM22.1606 9.95481L21.4567 10.151L22.1606 9.95481ZM12.4747 2.50327L12.4474 3.23348L12.4747 2.50327ZM12.1252 2.50327L12.1526 3.23348L12.1252 2.50327ZM10.3934 17.1822C9.9898 17.1822 9.66265 17.5093 9.66265 17.9129C9.66265 18.3164 9.9898 18.6436 10.3934 18.6436V17.1822ZM14.2066 18.6436C14.6102 18.6436 14.9373 18.3164 14.9373 17.9129C14.9373 17.5093 14.6102 17.1822 14.2066 17.1822V18.6436ZM4.19438 15.7429C3.70413 14.2009 3.3546 13.0983 3.17114 12.2029C2.99104 11.3239 2.9868 10.7123 3.14325 10.151L1.73547 9.75863C1.49396 10.6252 1.53351 11.4911 1.73946 12.4963C1.94205 13.4851 2.32082 14.6733 2.80165 16.1857L4.19438 15.7429ZM6.42445 4.80263C5.16605 5.73703 4.17494 6.47171 3.44114 7.15108C2.69431 7.84252 2.16285 8.52142 1.85942 9.36878L3.23529 9.86146C3.43112 9.3146 3.78486 8.82446 4.43399 8.22347C5.09616 7.61042 6.01178 6.92931 7.29569 5.97597L6.42445 4.80263ZM3.14325 10.151C3.17046 10.0533 3.20117 9.95677 3.23529 9.86146L1.85942 9.36878C1.81345 9.49716 1.7721 9.6272 1.73547 9.75863L3.14325 10.151ZM12.3 21.7693C10.7125 21.7693 9.58125 21.7683 8.69428 21.6702C7.82524 21.5741 7.262 21.3909 6.79418 21.0696L5.96687 22.2743C6.70482 22.7811 7.53008 23.0118 8.53371 23.1228C9.51942 23.2317 10.745 23.2307 12.3 23.2307V21.7693ZM2.80165 16.1857C3.28244 17.698 3.65944 18.8869 4.06434 19.8089C4.47576 20.7456 4.94294 21.473 5.64083 22.0322L6.55474 20.8918C6.10947 20.535 5.76231 20.0407 5.4024 19.2212C5.03597 18.3869 4.68467 17.285 4.19438 15.7429L2.80165 16.1857ZM6.79418 21.0696C6.7123 21.0134 6.63243 20.9541 6.55474 20.8918L5.64083 22.0322C5.74655 22.1169 5.8553 22.1977 5.96687 22.2743L6.79418 21.0696ZM20.4056 15.7429C19.9153 17.285 19.564 18.3869 19.1976 19.2212C18.8377 20.0407 18.4905 20.535 18.0452 20.8918L18.9591 22.0322C19.657 21.473 20.1242 20.7456 20.5356 19.8089C20.9405 18.8869 21.3175 17.698 21.7983 16.1857L20.4056 15.7429ZM12.3 23.2307C13.855 23.2307 15.0806 23.2317 16.0663 23.1228C17.0699 23.0118 17.8952 22.7811 18.6331 22.2743L17.8058 21.0696C17.338 21.3909 16.7747 21.5741 15.9057 21.6702C15.0187 21.7683 13.8874 21.7693 12.3 21.7693V23.2307ZM18.0452 20.8918C17.9675 20.9541 17.8877 21.0134 17.8058 21.0696L18.6331 22.2743C18.7447 22.1977 18.8534 22.1169 18.9591 22.0322L18.0452 20.8918ZM17.3043 5.97597C18.5882 6.92931 19.5038 7.61042 20.166 8.22347C20.8151 8.82446 21.1689 9.3146 21.3647 9.86146L22.7406 9.36878C22.4371 8.52142 21.9057 7.84252 21.1588 7.15108C20.425 6.47171 19.4339 5.73703 18.1755 4.80263L17.3043 5.97597ZM21.7983 16.1857C22.2792 14.6733 22.6579 13.4851 22.8605 12.4963C23.0665 11.4911 23.106 10.6252 22.8645 9.75863L21.4567 10.151C21.6132 10.7123 21.6089 11.3239 21.4288 12.2029C21.2454 13.0983 20.8958 14.2009 20.4056 15.7429L21.7983 16.1857ZM21.3647 9.86146C21.3988 9.95676 21.4295 10.0533 21.4567 10.151L22.8645 9.75863C22.8279 9.6272 22.7865 9.49716 22.7406 9.36878L21.3647 9.86146ZM18.1755 4.80263C16.9173 3.86835 15.9271 3.13187 15.0678 2.62834C14.1937 2.1162 13.3932 1.80648 12.5021 1.77307L12.4474 3.23348C13.008 3.2545 13.5689 3.44392 14.3289 3.88926C15.1037 4.3432 16.0202 5.02252 17.3043 5.97597L18.1755 4.80263ZM7.29569 5.97597C8.57975 5.02252 9.49632 4.3432 10.271 3.88926C11.0311 3.44392 11.592 3.2545 12.1526 3.23348L12.0979 1.77307C11.2068 1.80648 10.4063 2.1162 9.53222 2.62834C8.67286 3.13187 7.6827 3.86835 6.42445 4.80263L7.29569 5.97597ZM12.5021 1.77307C12.3674 1.76802 12.2326 1.76802 12.0979 1.77307L12.1526 3.23348C12.2508 3.22979 12.3491 3.22979 12.4474 3.23348L12.5021 1.77307ZM10.3934 18.6436H14.2066V17.1822H10.3934V18.6436Z" fill="#737373"/>
</svg>
