<svg width="93" height="92" viewBox="0 0 93 92" fill="none" xmlns="http://www.w3.org/2000/svg">
<g filter="url(#filter0_d_247_524)">
<rect x="20.5" y="16" width="52" height="52" rx="26" fill="#57A926" shape-rendering="crispEdges"/>
<path d="M46.5002 27.0002C42.5902 27.0002 39.395 30.1954 39.395 34.1054C39.395 35.9316 40.4227 37.7849 41.5552 39.6471C42.6878 41.5093 44.0007 43.2714 44.8133 44.3191C45.6496 45.3962 47.3507 45.3962 48.187 44.3191C49.0002 43.2712 50.3124 41.5093 51.4451 39.6471C52.5778 37.7849 53.6054 35.9316 53.6054 34.1054C53.6054 30.1954 50.4102 27.0002 46.5002 27.0002ZM46.5002 29.3686C49.1301 29.3686 51.237 31.4755 51.237 34.1054C51.237 34.8206 50.4761 36.6839 49.4221 38.4167C48.4305 40.0469 47.2856 41.58 46.4986 42.603C45.7119 41.5798 44.5693 40.0462 43.5782 38.4167C42.5244 36.6838 41.7634 34.8206 41.7634 34.1054C41.7634 31.4755 43.8702 29.3686 46.5002 29.3686ZM55.9737 30.9476V33.316H58.7369C58.9698 33.316 59.1316 33.4778 59.1316 33.7107V39.3927L57.2905 40.6201C57.0506 40.7801 56.8773 41.0223 56.8032 41.3011C56.7291 41.5799 56.7593 41.8761 56.8881 42.1342L59.0607 46.4794L58.3776 49.2132C58.3541 49.307 58.3422 49.4033 58.3421 49.5V52.627L53.2785 54.5251L47.4238 51.5986C47.2015 51.4876 46.9501 51.4494 46.7049 51.4893C46.4597 51.5291 46.2333 51.645 46.0576 51.8206L44.0362 53.8421H37.9116L36.1431 52.0735L35.4862 48.7861L36.177 46.7168C36.276 46.419 36.2527 46.094 36.1122 45.8133L33.9319 41.4512L35.1454 35.9927C35.1868 35.8063 35.3381 35.6844 35.5294 35.6844H37.0266V33.316H35.5294C34.2411 33.316 33.1117 34.221 32.8325 35.4793L31.5281 41.3479C31.4692 41.6134 31.5035 41.891 31.6252 42.1342L33.7747 46.4331L33.1394 48.3359C33.0743 48.5317 33.0616 48.7411 33.1024 48.9434L33.8919 52.8907C33.9378 53.1197 34.0505 53.33 34.2157 53.4951L36.584 55.8635C36.8061 56.0856 37.1073 56.2104 37.4213 56.2105H44.5265C44.8405 56.2104 45.1417 56.0856 45.3638 55.8635L47.1293 54.098L52.6817 56.875C52.8274 56.9478 52.9866 56.9897 53.1492 56.9982C53.3118 57.0067 53.4745 56.9816 53.6269 56.9244L59.9427 54.556C60.1682 54.4712 60.3626 54.3197 60.4998 54.1216C60.637 53.9235 60.7105 53.6883 60.7105 53.4473V49.6465L61.4645 46.6289C61.5329 46.3551 61.5012 46.0658 61.3751 45.8133L59.4739 42.0109L60.9727 41.0117C61.1349 40.9036 61.2679 40.7571 61.3599 40.5852C61.4518 40.4133 61.5 40.2214 61.5 40.0264V33.7107C61.5 32.1989 60.2487 30.9476 58.7369 30.9476H55.9737ZM46.5002 32.4139C46.0574 32.4227 45.6357 32.6048 45.3256 32.9211C45.0156 33.2373 44.8419 33.6625 44.8419 34.1054C44.8419 34.5483 45.0156 34.9735 45.3256 35.2898C45.6357 35.6061 46.0574 35.7881 46.5002 35.7969C46.943 35.7881 47.3647 35.6061 47.6747 35.2898C47.9847 34.9735 48.1584 34.5483 48.1584 34.1054C48.1584 33.6625 47.9847 33.2373 47.6747 32.9211C47.3647 32.6048 46.943 32.4227 46.5002 32.4139ZM40.5792 46.7369C40.0557 46.7369 39.5537 46.9448 39.1836 47.315C38.8135 47.6851 38.6055 48.1871 38.6055 48.7105C38.6055 49.234 38.8135 49.736 39.1836 50.1061C39.5537 50.4763 40.0557 50.6842 40.5792 50.6842C41.1026 50.6842 41.6046 50.4763 41.9748 50.1061C42.3449 49.736 42.5528 49.234 42.5528 48.7105C42.5528 48.1871 42.3449 47.6851 41.9748 47.315C41.6046 46.9448 41.1026 46.7369 40.5792 46.7369Z" fill="white"/>
</g>
<defs>
<filter id="filter0_d_247_524" x="0.5" y="0" width="92" height="92" filterUnits="userSpaceOnUse" color-interpolation-filters="sRGB">
<feFlood flood-opacity="0" result="BackgroundImageFix"/>
<feColorMatrix in="SourceAlpha" type="matrix" values="0 0 0 0 0 0 0 0 0 0 0 0 0 0 0 0 0 0 127 0" result="hardAlpha"/>
<feOffset dy="4"/>
<feGaussianBlur stdDeviation="10"/>
<feComposite in2="hardAlpha" operator="out"/>
<feColorMatrix type="matrix" values="0 0 0 0 0.745098 0 0 0 0 0.835294 0 0 0 0 0.345098 0 0 0 0.5 0"/>
<feBlend mode="normal" in2="BackgroundImageFix" result="effect1_dropShadow_247_524"/>
<feBlend mode="normal" in="SourceGraphic" in2="effect1_dropShadow_247_524" result="shape"/>
</filter>
</defs>
</svg>
