<svg width="25" height="25" viewBox="0 0 25 25" fill="none" xmlns="http://www.w3.org/2000/svg">
<g clip-path="url(#clip0_247_527)">
<path d="M13.4431 0.5001C13.2266 0.503482 13.0203 0.592667 12.8695 0.748064C12.7187 0.903462 12.6357 1.11236 12.6388 1.32889V2.14597H5.96381C5.91532 2.13766 5.86618 2.13374 5.81699 2.13427C5.7774 2.1353 5.73793 2.13921 5.6989 2.14597H4.74031C4.63204 2.14444 4.52454 2.16444 4.42407 2.20482C4.32359 2.24519 4.23214 2.30514 4.15503 2.38116C4.07793 2.45719 4.0167 2.54778 3.97491 2.64767C3.93311 2.74757 3.91159 2.85477 3.91159 2.96306C3.91159 3.07134 3.93311 3.17854 3.97491 3.27844C4.0167 3.37833 4.07793 3.46892 4.15503 3.54495C4.23214 3.62098 4.32359 3.68092 4.42407 3.72129C4.52454 3.76167 4.63204 3.78167 4.74031 3.78014H4.97331C4.9262 6.55111 4.6845 8.92034 4.16048 10.7137C3.58174 12.6942 2.72053 14.025 1.55709 14.8161C1.41269 14.9144 1.30358 15.0564 1.24579 15.2212C1.18799 15.3861 1.18455 15.5651 1.23595 15.7321C1.28736 15.899 1.39091 16.0451 1.53143 16.1489C1.67194 16.2527 1.84201 16.3087 2.0167 16.3088H5.01268V17.6706C5.01268 19.0132 6.12135 20.1218 7.46393 20.1218H10.6184L8.92361 23.2753C8.86912 23.37 8.83417 23.4746 8.82083 23.583C8.80749 23.6915 8.81603 23.8015 8.84594 23.9066C8.87586 24.0117 8.92654 24.1097 8.99499 24.1948C9.06344 24.28 9.14827 24.3505 9.24446 24.4023C9.34066 24.4541 9.44626 24.4861 9.55503 24.4964C9.6638 24.5067 9.77353 24.495 9.87772 24.4621C9.98191 24.4293 10.0785 24.3758 10.1616 24.305C10.2448 24.2342 10.313 24.1474 10.362 24.0498L12.4739 20.1218H14.4379L16.5497 24.0498C16.5988 24.1474 16.6669 24.2342 16.7501 24.305C16.8333 24.3758 16.9298 24.4293 17.034 24.4621C17.1382 24.495 17.248 24.5067 17.3567 24.4964C17.4655 24.4861 17.5711 24.4541 17.6673 24.4023C17.7635 24.3505 17.8483 24.28 17.9168 24.1948C17.9852 24.1097 18.0359 24.0117 18.0658 23.9066C18.0957 23.8015 18.1043 23.6915 18.0909 23.583C18.0776 23.4746 18.0426 23.37 17.9881 23.2753L16.2933 20.1218H19.4478C20.7904 20.1218 21.8991 19.0132 21.8991 17.6706V3.78014H22.1714C22.2797 3.78167 22.3872 3.76167 22.4877 3.72129C22.5882 3.68092 22.6796 3.62098 22.7567 3.54495C22.8338 3.46892 22.8951 3.37833 22.9369 3.27844C22.9786 3.17854 23.0002 3.07134 23.0002 2.96306C23.0002 2.85477 22.9786 2.74757 22.9369 2.64767C22.8951 2.54778 22.8338 2.45719 22.7567 2.38116C22.6796 2.30514 22.5882 2.24519 22.4877 2.20482C22.3872 2.16444 22.2797 2.14444 22.1714 2.14597H21.2161C21.1283 2.13156 21.0389 2.13156 20.9511 2.14597H14.273V1.32889C14.2745 1.21953 14.2541 1.11096 14.213 1.00963C14.1718 0.908298 14.1107 0.81626 14.0333 0.738972C13.9559 0.661683 13.8638 0.600716 13.7624 0.559684C13.6611 0.518652 13.5525 0.498391 13.4431 0.5001ZM6.60748 3.78014H13.3218C13.4095 3.79455 13.499 3.79455 13.5867 3.78014H20.2255C20.1784 6.55111 19.9367 8.92034 19.4127 10.7137C18.8595 12.607 18.0301 13.8727 16.9434 14.6746H3.99983C4.74325 13.7173 5.32464 12.555 5.72869 11.1722C6.3168 9.15953 6.56191 6.6574 6.60748 3.78014ZM20.2649 13.0585V17.6706C20.2649 18.18 19.9573 18.4877 19.4478 18.4877H15.0475C15.0035 18.4805 14.959 18.4769 14.9145 18.477C14.8735 18.4775 14.8326 18.481 14.7922 18.4877H12.1111C12.0653 18.4806 12.0191 18.4773 11.9728 18.4781C11.9379 18.479 11.903 18.4822 11.8685 18.4877H7.46393C6.95445 18.4877 6.64684 18.18 6.64684 17.6706V16.3088H17.2689C17.4329 16.3088 17.593 16.2595 17.7285 16.1673C18.8103 15.4317 19.6394 14.3727 20.2649 13.0585Z" fill="#737373"/>
</g>
<defs>
<clipPath id="clip0_247_527">
<rect width="24" height="24" fill="white" transform="translate(0.0999756 0.5)"/>
</clipPath>
</defs>
</svg>
