<?xml version="1.0" encoding="UTF-8" standalone="no"?>
<svg
   width="512"
   height="512"
   viewBox="0 0 512 512"
   version="1.1"
   id="svg11"
   sodipodi:docname="full-with-template.svg"
   xml:space="preserve"
   inkscape:export-filename="prod-foreground.png"
   inkscape:export-xdpi="192"
   inkscape:export-ydpi="192"
   inkscape:version="1.3 (0e150ed, 2023-07-21)"
   xmlns:inkscape="http://www.inkscape.org/namespaces/inkscape"
   xmlns:sodipodi="http://sodipodi.sourceforge.net/DTD/sodipodi-0.dtd"
   xmlns="http://www.w3.org/2000/svg"
   xmlns:svg="http://www.w3.org/2000/svg"><style
     id="style1"><![CDATA[
#keylines circle, #keylines rect { 
   vector-effect: non-scaling-stroke;
   fill: none;
   stroke: #0000FF;
}
#mask path, #mask rect, #mask circle, #hatching path { 
   vector-effect: non-scaling-stroke;
   fill: none;
   stroke: #FF0000;
}
#keylines, #mask {
   opacity: 0.5;
}
]]></style><inkscape:_templateinfo><inkscape:_name>Android O icon template</inkscape:_name><inkscape:author>Venceslas DUET</inkscape:author><inkscape:_shortdesc>A collection of keylines and guides used to make adaptive icons for android O</inkscape:_shortdesc><inkscape:date>2021-02-14</inkscape:date><inkscape:_keywords>Android Icon Adaptive Keylines</inkscape:_keywords></inkscape:_templateinfo><defs
     id="defs1"><clipPath
       clipPathUnits="userSpaceOnUse"
       id="clipHatching"><rect
         width="8"
         height="8"
         x="0"
         y="0"
         id="rect1" /></clipPath><pattern
       patternUnits="userSpaceOnUse"
       width="8"
       height="8"
       id="hatching"><path
         d="M 1,-1 -1,1 M 9,7 7,9 M 9,-1 -1,9"
         clip-path="url(#clipHatching)"
         id="path1" /></pattern><style
       id="style1-3">.a{fill:none;stroke:#000000;stroke-linecap:round;stroke-linejoin:round;}.b{fill:#000000;}</style></defs><sodipodi:namedview
     id="base"
     inkscape:current-layer="layer1"
     showgrid="false"
     units="px"
     showguides="false"
     inkscape:guide-bbox="true"
     inkscape:document-units="px"
     inkscape:cx="227.96963"
     inkscape:cy="317.70829"
     pagecolor="#505050"
     bordercolor="#eeeeee"
     borderopacity="1"
     inkscape:showpageshadow="0"
     inkscape:pageopacity="0"
     inkscape:pagecheckerboard="0"
     inkscape:deskcolor="#505050"
     inkscape:lockguides="false"
     inkscape:export-bgcolor="#ffffff00"
     inkscape:zoom="0.89704931"
     inkscape:window-width="1512"
     inkscape:window-height="837"
     inkscape:window-x="0"
     inkscape:window-y="38"
     inkscape:window-maximized="0"><inkscape:grid
       type="xygrid"
       empspacing="8"
       id="grid1"
       visible="false"
       originx="0"
       originy="0"
       spacingy="1"
       spacingx="1"
       units="px" /><sodipodi:guide
       position="256,256"
       orientation="0,1"
       inkscape:locked="false"
       id="guide1" /><sodipodi:guide
       position="256,200"
       orientation="0,1"
       inkscape:locked="false"
       id="guide2" /><sodipodi:guide
       position="156.17121,312.28508"
       orientation="0,1"
       inkscape:locked="false"
       id="guide3" /><sodipodi:guide
       position="256,256"
       orientation="1,0"
       inkscape:locked="false"
       id="guide4" /><sodipodi:guide
       position="200,256"
       orientation="1,0"
       inkscape:locked="false"
       id="guide5" /><sodipodi:guide
       position="312,256"
       orientation="1,0"
       inkscape:locked="false"
       id="guide6" /><sodipodi:guide
       position="256,256"
       orientation="1,1"
       inkscape:locked="false"
       id="guide7" /><sodipodi:guide
       position="256,256"
       orientation="1,-1"
       inkscape:locked="false"
       id="guide8" /></sodipodi:namedview><g
     inkscape:groupmode="layer"
     id="layer2"
     inkscape:label="Background"
     style="stroke:none;stroke-width:0;stroke-dasharray:none"><rect
       style="fill:#ffffff;fill-opacity:1;stroke:none;stroke-width:0;stroke-dasharray:none"
       id="rect12"
       width="512"
       height="512"
       x="0"
       y="0" /></g><g
     inkscape:groupmode="layer"
     id="layer1"
     inkscape:label="Icon"
     transform="matrix(2.0966405,0,0,2.0966405,-321.55497,-431.01163)"><circle
       style="fill:#673615;fill-opacity:1;stroke:none;stroke-width:0;stroke-dasharray:none"
       id="path2"
       cx="275.46686"
       cy="327.67261"
       r="83.705338" /><path
       fill="#57a926"
       d="m 81.755326,-0.34944865 0.01655,-0.005337 C 79.601874,5.5452141 78.06,10.92 80.77,16.89 c 0.146667,0.333333 0.366667,0.393333 0.66,0.18 C 87.15,12.856667 91.52,7.0216373 94.54,0.35497058 l 5.77,1.00000002 C 97.76,9.5949706 93.08,15.09 87.02,22.42 c -4.52,5.48 -6.67,16.4 2.87,18.21 7.146667,1.36 12.86667,-0.733333 17.16,-6.28 5.06,-6.54 4.54,-10.76 5.41,-17.76 0.072,-0.469373 0.70266,-0.572201 0.92,-0.15 4.98,10.14 -2.41,22.86 -9.8,30.18 -0.70667,0.7 -0.56667,0.98 0.42,0.84 13.95333,-1.966667 24.58667,-8.91 31.9,-20.83 0.28544,-0.439509 0.96609,-0.136087 0.83,0.37 -3.36,12.13 -12.61,21.52 -24.48,25.26 -2.82,0.886667 -4.85667,1.523333 -6.11,1.91 -0.35732,0.113614 -0.36412,0.616772 -0.01,0.74 15.28,5.1 28.96,7.77 40.47,-6.47 0.30553,-0.350107 0.87833,-0.07803 0.8,0.38 -2.47,12.09 -12.58,14.24 -23.4,13.92 -8.33333,-0.246667 -16.58,-0.59 -24.74,-1.03 -0.733603,-0.043 -1.104791,0.868099 -0.55,1.35 12.76667,11.213333 25.89333,21.996667 39.38,32.35 2.99,2.3 12.66,4.29 10.12,10.31 -1.08,2.55333 -3.11,5.51333 -6.09,8.88 -5.4,6.11 -10.16,1.88 -16.78,1.52 -8.99333,-0.48667 -17.92667,0.0367 -26.8,1.57 -0.9,0.16 -1.54,0.28 -2.09,1.13 -2.99,4.56 -5.16,9.9 -7.89,14.02 -5.83,8.79 -10.98,17.65 -16.53,26.53 -0.14495,0.23343 -0.495008,0.19783 -0.59,-0.06 -2,-5.78 -4.11,-11.4 -6.33,-16.86 -1.46,-3.60667 -2.196667,-6.48333 -2.21,-8.63 -0.03,-5.85 1.09,-14.45 8.11,-16.08 5.09,-1.19 15.4,4.06 14.2,-6.8 -0.03851,-0.36162 0.08217,-0.72001 0.33,-0.98 l 2.11,-2.3 c 0.201374,-0.21251 0.259935,-0.52484 0.15,-0.8 -0.513333,-1.24667 -0.403333,-2.39333 0.33,-3.44 0.216493,-0.31656 0.247014,-0.72477 0.08,-1.07 -4.01,-8.03 6.99,-5.2 4.02,-11.19 -2.02,-4.066667 -4.27,-8.006667 -6.75,-11.82 -0.149839,-0.228266 -0.229776,-0.495881 -0.23,-0.77 v -2.14 c 0,-0.286667 0.07333,-0.556667 0.22,-0.81 C 87.85,71.5 88.626667,67.463333 87.8,63.51 84.44,47.5 69.51,36.47 54.59,31.42 c -3.44,-1.16 -7.56,-1.8 -11.31,-2.54 -1.18033,-0.281444 -1.021842,-2.008127 0.19,-2.07 10.173333,-0.14 19.77,2.096667 28.79,6.71 0.262668,0.119935 0.537298,-0.141922 0.43,-0.41 -1.6,-3.7 -3.5,-5.15 -7.25,-7.8 C 58.78,20.59 53.696508,13.925344 50.836508,6.1786777 l 7.617831,-2.77 C 61.264339,9.0986777 64.85,14.23 71.22,16.15 71.58,16.256667 71.753333,16.12667 71.74,15.76 71.5,9.84 66.102169,4.7408471 60.772169,2.6808471 c 7.285825,-1.94312281 14.9971,-2.96320801 20.983157,-3.03029575 z"
       id="path4"
       sodipodi:nodetypes="cccccccccccsccccccccccccccccccccccccccccccccscccccccccccccc"
       style="stroke:none;stroke-width:0;stroke-dasharray:none"
       transform="translate(192,244.34519)" /></g><g
     inkscape:label="Keylines"
     inkscape:groupmode="layer"
     id="keylines"
     sodipodi:insensitive="true"
     style="display:inline"
     transform="matrix(0.99716714,0,0,0.99716714,0.72521216,0.72521216)"><circle
       cx="256"
       cy="256"
       r="80"
       id="circle8" /><circle
       cx="256"
       cy="256"
       r="176"
       id="circle9" /><rect
       width="256"
       height="352"
       x="128"
       y="80"
       ry="24"
       id="rect9" /><rect
       width="352"
       height="256"
       x="80"
       y="128"
       ry="24"
       id="rect10" /><rectn
       width="304"
       height="304"
       x="104"
       y="104"
       ry="24" /></g><g
     inkscape:label="Mask"
     inkscape:groupmode="layer"
     id="mask"
     sodipodi:insensitive="true"
     style="display:inline"
     transform="matrix(0.99805068,0,0,0.99805068,0.49902592,0.49902592)"><path
       d="M 0,0 V 512 H 512 V 0 Z M 64,64 H 448 V 448 H 64 Z"
       style="fill:url(#hatching)"
       id="path10" /><path
       d="m 256,512 c 112.1778,0 174.5778,0 215.2889,-40.7111 C 512,430.5778 512,368.1778 512,256 512,143.8222 512,81.4222 471.2889,40.7111 430.5778,0 368.1778,0 256,0 143.8222,0 81.4222,0 40.7111,40.7111 0,81.4222 0,143.8222 0,256 0,368.1778 0,430.5778 40.7111,471.2889 81.4222,512 143.8222,512 256,512 Z"
       id="path11" /><circle
       cx="256"
       cy="256"
       r="256"
       id="circle11" /><rect
       width="512"
       height="512"
       x="0"
       y="0"
       ry="128"
       id="rect11" /></g></svg>
